<svg xmlns="http://www.w3.org/2000/svg" viewBox="0 0 16 16"><path fill="#80868b" fill-rule="evenodd" d="M8.1.7C3.9.7.5 4.1.5 8.3c0 3.4 2.2 6.2 5.2 7.2.4.1.5-.2.5-.4v-1.3c-2.1.5-2.6-1-2.6-1-.3-.9-.8-1.1-.8-1.1-.7-.5.1-.5.1-.5.7.1 1.1.8 1.1.8.7 1.2 1.8.8 2.2.6.1-.5.3-.8.5-1-1.7-.2-3.5-.8-3.5-3.7 0-.8.3-1.5.8-2-.1-.2-.3-1 .1-2 0 0 .6-.2 2.1.8.6-.2 1.3-.3 1.9-.3.6 0 1.3.1 1.9.3 1.4-1 2.1-.8 2.1-.8.4 1 .2 1.8.1 2 .5.5.8 1.2.8 2 0 2.9-1.8 3.6-3.5 3.7.3.2.5.7.5 1.4v2.1c0 .2.1.4.5.4 3-1 5.2-3.8 5.2-7.2C15.6 4.1 12.2.7 8.1.7z" clip-rule="evenodd"/></svg>