<svg xmlns="http://www.w3.org/2000/svg" id="Layer_1" x="0" y="0" version="1.1" viewBox="0 0 455 455" xml:space="preserve"><style>.st0{fill:#80868b}</style><path d="M149.4 389.2l-17.9 47.1c-.5 1.3.5 2.7 1.9 2.7h188.2c1.4 0 2.4-1.4 1.9-2.7l-17.9-47.1c-.7-1.9-2.6-3.2-4.7-3.2H154.1c-2.1 0-4 1.3-4.7 3.2z" class="st0"/><path d="M188.6 359.4l-8.7 26c-.4 1.3.5 2.6 1.9 2.6h91.4c1.4 0 2.3-1.3 1.9-2.6l-8.7-26c-.3-.8-1-1.4-1.9-1.4h-74c-.9 0-1.6.5-1.9 1.4zM7.4 252.1c0 36.8 30 66.6 67.1 66.6s67.1-29.8 67.1-66.6H7.4zm306 0c0 36.8 30 66.6 67.1 66.6s67.1-29.8 67.1-66.6H313.4z" class="st0"/><path d="M75.4 173.7L109 253h32.6L98.3 150.8c-.6-1.3.4-2.8 1.8-2.8h49.1c2.1 0 4-1.4 4.7-3.4l13.7-25.3c.3-.8 1-1.3 1.9-1.3h40.9c1.1 0 2 .9 2 2v238h30V120c0-1.1.9-2 2-2h40.4c.9 0 1.6.5 1.9 1.4l13.6 25.3c.7 2 2.6 3.4 4.7 3.4h49.7c1.4 0 2.4 1.5 1.8 2.8L313.4 253H346l33.6-79.3c.3-.8 1.5-.8 1.8 0L415 253h32.6l-55.1-130.1c-1.3-3-4.2-4.9-7.4-4.9h-68.4c-1.9 0-3.7-1.1-4.5-2.9L298.3 90c-.6-1.2-1.8-2-3.2-2h-51.2c-.8 0-1.4-.6-1.4-1.4V75c11.8-6.8 18.5-21.3 13.1-36.7-2.9-8.3-9.6-14.8-17.9-17.6-20.9-6.9-40.2 8.4-40.2 28.3 0 11.1 6 20.8 15 26v11.6c0 .8-.6 1.4-1.4 1.4h-51.6c-1.4 0-2.6.8-3.2 2l-13.4 25c-.8 1.8-2.6 2.9-4.5 2.9H69.9c-3.2 0-6.1 1.9-7.4 4.9L7.4 253H40l33.6-79.3c.3-.9 1.5-.9 1.8 0z" class="st0"/></svg>