<svg xmlns="http://www.w3.org/2000/svg" id="Layer_1" x="0" y="0" version="1.1" viewBox="0 0 16 16" xml:space="preserve"><style>.st0{fill-rule:evenodd;clip-rule:evenodd;fill:#80868b}</style><path d="M2.9 7.1c-.2-.1-.6-.1-.8 0l-2 2c-.1.2-.1.6 0 .8.2.2.5.2.7 0l1.6-1.6L4 9.9c.2.2.5.2.7 0 .3-.2.3-.6.2-.8l-2-2zM15.9 6.1c-.2-.2-.5-.2-.7 0l-1.6 1.6L12 6.1c-.2-.2-.5-.2-.7 0s-.2.5 0 .7l2 2c.2.2.5.2.7 0l2-2c0-.1 0-.5-.1-.7z" class="st0"/><path d="M8 3c-1.8 0-3.3.9-4.2 2.3-.1.2-.5.3-.7.1-.2-.1-.3-.4-.1-.7C4 3.1 5.9 2 8 2c3.3 0 6 2.7 6 6 0 .3-.2.5-.5.5S13 8.3 13 8c0-2.8-2.2-5-5-5zM2.5 7.5c.3 0 .5.2.5.5 0 2.8 2.2 5 5 5 1.8 0 3.3-.9 4.2-2.3.2-.2.5-.3.7-.1s.3.5.1.7c-1 1.6-2.9 2.7-5 2.7-3.3 0-6-2.7-6-6 0-.3.2-.5.5-.5z" class="st0"/></svg>