<svg xmlns="http://www.w3.org/2000/svg" id="Layer_1" x="0" y="0" version="1.1" viewBox="0 0 16 16" xml:space="preserve"><style>.st0{fill-rule:evenodd;clip-rule:evenodd;fill:#80868b}</style><path d="M.8 1.2c0-.3.3-.6.6-.6h4.7c.3 0 .6.3.6.6s-.3.6-.6.6H2v4.1c0 .3-.3.6-.6.6s-.6-.3-.6-.6V1.2zM15 1.2c0-.3-.3-.6-.6-.6H9.7c-.3 0-.6.3-.6.6s.3.6.6.6h4.1v4.1c0 .3.3.6.6.6s.6-.3.6-.6V1.2z" class="st0"/><path d="M9 6.5c.2.2.6.2.8 0l4.8-4.8c.2-.2.2-.6 0-.8-.2-.2-.6-.2-.8 0L9 5.7c-.2.2-.2.6 0 .8zM8.6 8c0-.2 0-.3-.2-.5L2 1.1c-.2-.2-.6-.2-.8 0s-.2.6 0 .8l6.2 6.2c.1.1.1.2.1.3v6.5c0 .3.3.6.6.6s.6-.3.6-.6v-4.7L8.6 8z" class="st0"/></svg>