<svg width="32" height="32" fill="none" xmlns="http://www.w3.org/2000/svg"><g clip-path="url(#clip0_737_3632)"><path d="M13.619.458a6.41 6.41 0 014.762 0l12.947 5.18c.896.358.896 1.625 0 1.984l-7.746 3.098a.64.64 0 000 1.189l7.746 3.099c.896.358.896 1.626 0 1.984l-7.746 3.098a.64.64 0 000 1.189l7.746 3.099c.896.358.896 1.625 0 1.984L18.381 31.54a6.412 6.412 0 01-4.762 0L.672 26.36c-.896-.358-.896-1.625 0-1.983l7.746-3.1a.64.64 0 000-1.188L.672 16.992c-.896-.358-.896-1.626 0-1.984l7.746-3.1a.64.64 0 000-1.188L.672 7.622c-.896-.359-.896-1.626 0-1.985L13.619.458z" fill="#3186FF"/><path d="M13.619.458a6.41 6.41 0 014.762 0l12.947 5.18c.896.358.896 1.625 0 1.984l-7.746 3.098a.64.64 0 000 1.189l7.746 3.099c.896.358.896 1.626 0 1.984l-7.746 3.098a.64.64 0 000 1.189l7.746 3.099c.896.358.896 1.625 0 1.984L18.381 31.54a6.412 6.412 0 01-4.762 0L.672 26.36c-.896-.358-.896-1.625 0-1.983l7.746-3.1a.64.64 0 000-1.188L.672 16.992c-.896-.358-.896-1.626 0-1.984l7.746-3.1a.64.64 0 000-1.188L.672 7.622c-.896-.359-.896-1.626 0-1.985L13.619.458z" fill="url(#paint0_linear_737_3632)"/><path d="M13.619.458a6.41 6.41 0 014.762 0l12.947 5.18c.896.358.896 1.625 0 1.984l-7.746 3.098a.64.64 0 000 1.189l7.746 3.099c.896.358.896 1.626 0 1.984l-7.746 3.098a.64.64 0 000 1.189l7.746 3.099c.896.358.896 1.625 0 1.984L18.381 31.54a6.412 6.412 0 01-4.762 0L.672 26.36c-.896-.358-.896-1.625 0-1.983l7.746-3.1a.64.64 0 000-1.188L.672 16.992c-.896-.358-.896-1.626 0-1.984l7.746-3.1a.64.64 0 000-1.188L.672 7.622c-.896-.359-.896-1.626 0-1.985L13.619.458z" fill="url(#paint1_linear_737_3632)"/><path d="M13.62.459a6.41 6.41 0 014.761 0l12.947 5.179c.896.358.896 1.626 0 1.984l-7.746 3.098a.64.64 0 000 1.189l7.746 3.099c.896.358.896 1.626 0 1.984l-7.746 3.099a.64.64 0 000 1.188l7.746 3.099c.896.358.896 1.626 0 1.984l-12.947 5.179a6.412 6.412 0 01-4.762 0L.672 26.362c-.896-.358-.896-1.626 0-1.984l7.746-3.099a.64.64 0 000-1.188L.672 16.992c-.896-.358-.896-1.626 0-1.984l7.746-3.099a.64.64 0 000-1.189L.672 7.622c-.896-.358-.896-1.626 0-1.984L13.619.458z" fill="url(#paint2_radial_737_3632)"/></g><defs><linearGradient id="paint0_linear_737_3632" x1="9.423" y1="29.688" x2="14.578" y2="18.488" gradientUnits="userSpaceOnUse"><stop offset=".206" stop-color="#0EBC5F"/><stop offset=".987" stop-color="#0EBC5F" stop-opacity="0"/></linearGradient><linearGradient id="paint1_linear_737_3632" x1="11.378" y1="4.977" x2="17.245" y2="15.999" gradientUnits="userSpaceOnUse"><stop stop-color="#FF4641"/><stop offset="1" stop-color="#FF4641" stop-opacity="0"/></linearGradient><radialGradient id="paint2_radial_737_3632" cx="0" cy="0" r="1" gradientUnits="userSpaceOnUse" gradientTransform="translate(1.36 15.997) scale(50.0701)"><stop stop-color="#FC0"/><stop offset=".423" stop-color="#FC0" stop-opacity="0"/></radialGradient><clipPath id="clip0_737_3632"><path fill="#fff" d="M0 0h32v32H0z"/></clipPath></defs></svg>