<svg height="36" viewBox="0 0 112 36" width="112" xmlns="http://www.w3.org/2000/svg"><path d="m14.75 26.5c-7.23 0-13.31-5.89-13.31-13.12s6.07-13.12 13.31-13.12c4 0 6.85 1.57 8.99 3.62l-2.53 2.53c-1.54-1.44-3.62-2.56-6.46-2.56-5.28 0-9.41 4.26-9.41 9.54s4.13 9.54 9.41 9.54c3.42 0 5.38-1.38 6.62-2.62 1.02-1.02 1.7-2.5 1.95-4.51h-8.32v-3.6h11.81c.13.64.19 1.41.19 2.24 0 2.69-.74 6.02-3.1 8.38-2.31 2.4-5.25 3.68-9.15 3.68z" fill="#4285f4"/><path d="m45.95 18.06c0 4.86-3.8 8.45-8.45 8.45-4.66 0-8.45-3.58-8.45-8.45 0-4.9 3.79-8.45 8.45-8.45 4.65.01 8.45 3.56 8.45 8.45zm-3.7 0c0-3.04-2.2-5.12-4.75-5.12s-4.75 2.08-4.75 5.12c0 3.01 2.2 5.12 4.75 5.12s4.75-2.11 4.75-5.12z" fill="#ea4335"/><path d="m64.95 18.05c0 4.86-3.79 8.45-8.45 8.45s-8.45-3.58-8.45-8.45c0-4.9 3.79-8.45 8.45-8.45s8.45 3.56 8.45 8.45zm-3.7 0c0-3.04-2.2-5.12-4.75-5.12s-4.75 2.08-4.75 5.12c0 3.01 2.2 5.12 4.75 5.12s4.75-2.11 4.75-5.12z" fill="#fbbc05"/><path d="m83 10.12v15.17c0 6.24-3.68 8.8-8.03 8.8-4.1 0-6.56-2.75-7.49-4.99l3.23-1.34c.58 1.38 1.98 3.01 4.26 3.01 2.78 0 4.51-1.73 4.51-4.96v-1.22h-.13c-.83 1.02-2.43 1.92-4.45 1.92-4.22 0-7.9-3.68-7.9-8.42 0-4.77 3.68-8.48 7.9-8.48 2.02 0 3.62.9 4.45 1.89h.13v-1.38zm-3.26 7.97c0-2.98-1.98-5.15-4.51-5.15-2.56 0-4.51 2.18-4.51 5.15 0 2.94 1.95 5.09 4.51 5.09 2.52-.01 4.51-2.15 4.51-5.09z" fill="#4285f4"/><path d="m89.71 1.17v24.83h-3.71v-24.83z" fill="#34a853"/><path d="m104.54 20.84 2.88 1.92c-.93 1.38-3.17 3.74-7.04 3.74-4.8 0-8.38-3.71-8.38-8.45 0-5.02 3.62-8.45 7.97-8.45 4.38 0 6.53 3.49 7.23 5.38l.38.96-11.3 4.67c.86 1.7 2.21 2.56 4.1 2.56s3.2-.93 4.16-2.33zm-8.86-3.04 7.55-3.14c-.42-1.06-1.66-1.79-3.14-1.79-1.88 0-4.51 1.66-4.41 4.93z" fill="#ea4335"/><path d="m0 0h112v36h-112z" fill="none"/></svg>