<?xml version="1.0" encoding="UTF-8"?>
<svg width="13px" height="15px" viewBox="0 0 13 15" version="1.1" xmlns="http://www.w3.org/2000/svg" xmlns:xlink="http://www.w3.org/1999/xlink">
    <!-- Generator: Sketch 58 (84663) - https://sketch.com -->
    <title>ic_copy</title>
    <desc>Created with Sketch.</desc>
    <g id="Symbols" stroke="none" stroke-width="1" fill="none" fill-rule="evenodd">
        <g id="go/header-package" transform="translate(-359.000000, -12.000000)" fill="#555759">
            <path d="M367,12 L361,12 C359.896,12 359,12.896 359,14 L359,22 C359,23.104 359.896,24 361,24 L361,22 L361,14 L367,14 L369,14 C369,12.896 368.104,12 367,12 L367,12 Z M370,15 L364,15 C362.896,15 362,15.896 362,17 L362,25 C362,26.104 362.896,27 364,27 L370,27 C371.104,27 372,26.104 372,25 L372,17 C372,15.896 371.104,15 370,15 L370,15 Z M364,25 L370,25 L370,17 L364,17 L364,25 Z" id="ic_copy"></path>
        </g>
    </g>
</svg>