<svg class="fill-current" height="32" xmlns="http://www.w3.org/2000/svg" viewBox="0 0 80.49 30.05">
    <defs></defs>
    <g data-name="Layer 2">
    <g data-name="Layer 1">
        <path d="M-234-202.94c-.14.0-.19-.1-.1-.21l.82-1a.62.62.0 0 1 .43-.2h14c.14.0.2.1.12.22l-.65 1a.56.56.0 0 1-.41.22zM-239.85-199.34c-.15.0-.19-.09-.1-.21l.81-1a.61.61.0 0 1 .43-.21h17.89a.18.18.0 0 1 .18.25l-.31 1a.4.4.0 0 1-.35.25zM-230.35-195.74c-.15.0-.21-.1-.14-.23l.56-1a.48.48.0 0 1 .39-.23h7.85a.25.25.0 0 1 .24.27l-.09.93a.31.31.0 0 1-.29.26z" transform="translate(240 212)">
        </path>
        <g>
        <path d="M-189.67-203.64c-2.46.61-4.15 1.12-6.58 1.73-.59.15-.64.2-1.14-.38a5.25 5.25.0 0 0-1.84-1.49 6.79 6.79.0 0 0-7.08.57 8.41 8.41.0 0 0-4 7.47 6.15 6.15.0 0 0 5.3 6.16 7.24 7.24.0 0 0 6.67-2.57c.37-.42.67-.9 1.08-1.44h-7.56c-.82.0-1-.5-.73-1.17.5-1.2 1.45-3.27 2-4.28a1.07 1.07.0 0 1 1-.65h14.28c-.07 1.07-.07 2.13-.22 3.18a16.65 16.65.0 0 1-3.22 7.7 16.17 16.17.0 0 1-11.16 6.65 13.79 13.79.0 0 1-10.52-2.6 12.39 12.39.0 0 1-5-8.7 15.35 15.35.0 0 1 3.32-11.48 17.39 17.39.0 0 1 11-6.77 13.63 13.63.0 0 1 10.38 1.9 12.45 12.45.0 0 1 4.54 5.55c.08.32-.08.51-.52.62z" transform="translate(240 212)"></path>
        <path d="M-176.72-181.95a14.48 14.48.0 0 1-9.55-3.45 12.28 12.28.0 0 1-4.23-7.6 15 15 0 0 1 3.19-11.84 16.53 16.53.0 0 1 11-6.56c4-.71 7.76-.3 11.16 2a12.09 12.09.0 0 1 5.51 8.73 15.11 15.11.0 0 1-4.51 13.3 17.77 17.77.0 0 1-9.4 5c-1.06.26-2.12.31-3.17.42zm9.36-15.85c0-.51.0-.91-.12-1.3a6.49 6.49.0 0 0-8-5.23 8.51 8.51.0 0 0-6.85 6.82 6.45 6.45.0 0 0 3.59 7.4 7.17 7.17.0 0 0 6.4-.24 8.52 8.52.0 0 0 4.98-7.45z" transform="translate(240 212)"></path>
        </g>
    </g>
    </g>
</svg>