<svg viewBox="0 0 1431 901" xmlns="http://www.w3.org/2000/svg" fill-rule="evenodd" clip-rule="evenodd" stroke-linejoin="round" stroke-miterlimit="2"><path d="M335.6 867.8c-.6-33-1.1-47.7-2.2-69.6-.6-10.6-.7-11.2-2.4-10-1 .7-5.7 4.6-10.6 8.6-15.4 12.5-25.1 16.2-47.4 17.7-12.7.9-17.2 2.1-32 9-7.5 3.5-15.5 6.8-17.8 7.5-3.1.8-15.6.9-45 .4l-40.7-.7-9.5 4c-18.4 7.8-31.9 11-41.5 9.8-9-1.2-21.4-4.4-26.4-7-11.5-5.8-23.1-18.3-38.8-42-19.7-29.6-24.6-42-19.2-48.9 1.2-1.5 4.9-4.1 8.3-5.8 11.3-5.6 11.9-6.4 14.1-17.1 1.2-6 7.3-8.4 13.3-5.3 3.7 2 9.4 8.1 13.4 14.6 4.4 7.1 4.6 7.5 6.9 20.5 2.8 15.5 8.5 38.9 10.8 44 1.8 4 2.4 4.5 7.7 6.1 8.5 2.4 23.5 1.5 32.9-2.1 3.9-1.4 12.2-4 18.5-5.6 11.1-2.9 12.5-3.1 36.5-3.4 35-.4 54.8-3.6 62.5-10.1 7-5.9 28-56.1 35.4-84.8 5.2-19.7 5.7-30.9 2.2-46.5-5.3-23.4-13.3-77.8-14.3-96.6-.6-11.5 1-23.3 6-46l2.2-10-5.1-5.2c-6.2-6.1-11.4-15.1-14.4-24.8-3-9.6-3.8-28.1-1.6-38.4.9-4.1 1.5-7.5 1.3-7.6-.1-.1-3.1-2.2-6.7-4.7-22-15.4-33.1-36.4-33.3-62.8-.1-13.6 1.3-22.8 5.9-37 4.6-14.5 10.8-24.6 21.3-35 10.1-10 18.1-14.9 30.8-19 13.1-4.2 20.8-5.3 38.3-5.3h15.6l2.3-11.1c3.4-16.3 8.6-32.9 13.7-43.4 7.5-15.5 20.5-27 45.1-39.9 8.5-4.4 12.6-7.4 19.3-13.8 5.3-5.1 14.5-12.1 24.5-18.8 18.3-12.1 35.8-26.7 47.2-39.4 11.3-12.7 14.6-15.6 26.8-23.7 18.8-12.5 55-31.8 79.1-42.1 14.6-6.3 23-8.3 62.4-14.9 18.4-3.2 39.1-6.9 46-8.4C689.2.6 690.3.5 723.5.5c35.9 0 51.2.9 82.5 5.1 21.1 2.8 34.6 6 44 10.2 6.9 3.2 34.5 13.3 62 22.7 43.7 15.1 57 19.9 62.5 22.7 14.2 7.1 36.1 24.7 70 56.3 20.2 18.8 22 20.2 42.9 34.5 32.3 22 35.4 26.2 48.7 67.5 12.3 38.2 11 35 14.5 34.8 5.6-.3 24.6 1.7 31.3 3.3 3.6.8 11.2 3.8 16.8 6.5 21.8 10.7 35.3 28.8 43.1 57.8 2.1 8.1 2.6 11.8 2.6 24.1.1 13.4-.1 15.2-2.8 23.3-4.6 14-14.3 27.1-25.6 34.8l-5.1 3.4.8 10c1.3 16.4.8 39-1.1 48.4-1.8 8.9-6.1 19.3-9.2 22.5-1.6 1.7-1.8 3.2-1.6 10.2.4 8.1-1.6 26.9-4.3 40.7-1.3 7-1.3 7.3 1 11.2 1.3 2.2 5.1 7.2 8.5 11 3.4 3.9 7 8.7 8.1 10.8 5.5 10.4 8.6 35.4 7.5 60-1.3 29.3-4.8 40.9-26.6 86.4-8.6 18-11.4 25.6-10.6 29.7.8 4.3 5.3 10.7 10.6 15.1 6.7 5.6 29 20.3 40.9 26.9 7.7 4.4 12.9 8.3 20.5 15.5 13.2 12.5 18.7 15.5 28.1 15.5 12.6-.1 19.7-5.3 28.4-21 7.6-13.7 11-18 26.9-34.5 15.4-15.9 23.6-22.5 35.2-28.4 19.8-10 37.8-9.9 49.2.3 5.7 5.2 7.8 9.2 7.8 15.1 0 5.5-1.3 8.4-6.2 13.7-8.2 8.9-22 16.5-44.2 24.3-13.7 4.9-18.2 7.7-29.8 19.1l-10.6 10.5-4.1 12.8c-2.2 7-5.3 14.6-7 17-6.8 9.8-24.2 23.7-31.5 25.1-2.5.5-5.8-.2-13-2.8-11.8-4.3-21-6.3-35.2-7.5-18.2-1.7-31.8-7.6-66.6-29.4-16.9-10.5-27.8-16.7-29.3-16.7-.3 0-.3 14.5.1 32.3.4 17.7.4 36.1 0 41l-.8 8.7H336.3l-.7-33.2z" fill="#0a0a0a" fill-rule="nonzero"/><g fill="#fefefe" fill-rule="nonzero"><path d="M348 874.8c0-14.5-.7-42.9-1.5-63.3l-1.4-37 3.7-3c13.5-10.9 22.7-22.5 31.7-39.8 6.6-12.9 6.9-15.6 2.8-35.8-4.9-24.8-3.7-39.6 5.9-75.9 1.7-6.3 3.3-12.5 3.6-13.7.2-1.3.8-2.3 1.1-2.3.4 0 5.4 2.4 11.2 5.4 12.3 6.5 27.3 11.8 41.3 14.8 8.1 1.7 13.6 2.1 27.6 2.2 36.6.1 71.3-8.2 103.4-24.6 10.3-5.3 29.9-17.9 31.3-20.1.4-.6 1.2 2.6 1.9 7.1 2.7 19.2 13 30 32 33.5l6.9 1.3-.3 7.5c-.1 4.1-.7 16.4-1.2 27.4-1.5 32-1.4 37.2 1.4 43.1 6.6 14.1 24 21.9 41 18.4 7.5-1.5 19.9-7.9 26.2-13.4l4.9-4.3 4.4 3.4c9.7 7.4 24.6 12.6 36.1 12.5 15.9-.1 29.1-10.4 33.7-26.4 2.3-8.3 2.8-35.4.9-53.4-.9-8.3-1.6-15.6-1.6-16.2 0-.7 1.2-1.2 2.8-1.2 4.6 0 15.6-2.7 20.5-5 11.2-5.3 19.3-16.8 21.8-31.2.7-4 1.3-7.4 1.5-7.6.1-.2 2.8 1.3 6 3.4 16 10.2 42.3 20.6 65.4 25.8 21.5 4.8 32.9 6 57 6 24.9.1 33.7-1.2 51.9-7.6 21.5-7.5 49.1-24.7 63-39.2 1.9-2 3.8-3.6 4.2-3.6.4 0 1 4.6 1.3 10.3 1.9 28.8 5.2 44.5 12.6 59.2 8 16.1 9.4 22.4 9.4 45.5l.1 19.5-5.1 17.5c-7.1 24.1-9.6 36.5-9.8 48.5-.1 8.7.2 10.6 2.3 14.4 4.8 9.1 17.7 20.5 33.8 30l7.3 4.3.2 43.7.3 43.6v14.95c4.5.9-86 3.267-390.7 3.367L348 914.264V874.8z"/><path d="M1288.5 863.9c-9.3-3.7-23.3-6.8-35.4-7.9-19.1-1.6-30.4-6.5-65.8-28.6-10.1-6.3-25.1-15-33.4-19.4-26.6-14.2-40.8-24.9-45.5-34.6-2.5-5-2.6-6.2-2.1-13.4.8-9.8 4.4-26.3 10.4-46.9 4.1-14.3 4.5-16.8 5-29.9.9-23.2-2.5-40.5-10.8-55.7-6.9-12.7-10.5-31.3-11.5-59.5l-.6-16.5 5.8-7c9.6-11.7 18.8-26.7 24.2-39.3l2.3-5.3 4.7.8c2.6.4 11.9.7 20.7.6 15.3-.1 23.9-1.3 32.9-4.9 1.8-.7 1.9-.3 1.2 8.2-.3 4.9-1.8 16.3-3.2 25.4-1.4 9-2.3 17.7-2 19.3.7 3.4 5 9.8 12.9 19 3.3 3.8 6.8 9.2 7.9 11.9 3.2 8.4 4.8 22.9 4.8 42.8 0 34-2.1 41.6-24.5 89.5-5.7 12.1-10.8 23.8-11.4 26-3.6 13.4 1.7 24.2 18.2 36.4 10.2 7.6 27 18.4 38.7 24.9 4.6 2.5 11.7 8.1 18.4 14.2 6.3 5.9 13.5 11.5 17 13.3 5.7 3 6.8 3.2 16.1 3.2 8.9 0 10.6-.3 15.7-2.8 7.4-3.6 15.4-12.4 21.3-23.2 2.6-4.7 6.3-10.7 8.3-13.4 4.6-6 28-30.7 28.5-30.1.2.3 2.3 6 4.5 12.8l4.1 12.2-5.7 3.6c-7.1 4.6-25.8 22.7-28.2 27.4-.9 1.9-3.1 8-4.8 13.5-3.6 11.5-7.2 17.5-14.5 24.1-6.4 5.8-15 11.4-17.4 11.4-1-.1-4-1-6.8-2.1zM77.5 833.4c-10.4-2.2-16.8-5.6-24.2-12.6-7.8-7.5-15.4-17.3-26.3-34-8.1-12.2-18-30.7-18-33.4 0-.7 3.5-3.1 7.8-5.3 10.6-5.3 14.7-10.2 16.4-19.6.4-1.7 1-1.4 4.6 2.4 6.5 7.1 8.7 12.3 11.7 27.6 5.4 28.8 10.4 45.2 14.8 49.4 8 7.5 31.7 8.7 48.8 2.5 19.8-7.2 22.1-7.6 52.9-8.4 46.7-1.3 64-5.5 71.8-17.8 11.3-17.5 31.6-70.9 36.2-94.9 2.9-15.5 2.5-29-1.8-48.8-6.4-30.2-13.7-85.3-12.7-96 .6-6.2 7-40.4 7.7-41 .2-.2 4.1 1 8.8 2.6 10.8 3.6 21.3 5.2 30.7 4.7 4.8-.2 7.3 0 7.3.8 0 .6 2 5.2 4.5 10.2 12.5 25.9 39.2 56.8 62.9 73.1 3.5 2.4 4.6 3.7 4.1 4.9-1.3 3.4-9.5 36.1-11.7 46.7-3.1 15.5-3 31.5.6 49.4 3.5 18.2 3.4 21.5-1 30.4-4.7 9.4-13.2 22.1-18.6 27.7-2.4 2.5-11.1 10.4-19.2 17.5-34.1 29.8-37.2 31.5-62.2 33.5-16.9 1.3-21.2 2.5-36.9 10.2l-13 6.3-44.5.1-44.5.2-12.5 5c-20.9 8.5-29.4 9.8-44.5 6.6zM1375.5 785.8c-3.7-10-4.4-13.2-3.3-13.9 1.9-1.2 2.6-.3 4.3 5.9.9 3.1 1.8 6.5 2.1 7.5.6 2-2.4 2.5-3.1.5zM1380.7 782.6c-.4-1 1.3-2 5.6-3.6 9.5-3.4 23.7-10.8 28.5-14.7 7.2-5.9 8.8-11.1 5.2-17.1-5.7-9.4-24.3-9.7-43.7-.7-8.6 4-10.7 2.9-3.1-1.5 11.9-6.8 25.5-10 34.3-8.1 9.4 2.1 17.5 9.3 17.5 15.5 0 8.6-11.6 18.1-33.3 27.4-5.4 2.3-9.9 4.2-10.1 4.2-.2 0-.6-.6-.9-1.4z"/><path d="M1378.2 774.3c-1.1-3.7-.9-5.3 1-5.3 1.7 0 18.1-7.9 20-9.7 2.5-2.2 2.3-5.1-.5-5.8-2.3-.6-10 1.5-19.5 5.4l-5.3 2.1-1.8-4.2-1.8-4.3 4.6-2.4c7.3-3.8 18-7.1 25.1-7.7 5.4-.5 7.5-.3 11.3 1.4 5.1 2.3 9 7.4 8.1 10.7-1 3.7-10.1 11.1-18.6 15.3-8.7 4.2-18.5 8.2-20.4 8.2-.6 0-1.6-1.6-2.2-3.7z"/><path d="M1369.6 769.3c-2.3-2.3 4.7-6.4 19.3-11.3 12.2-4.1 11.8-1.5-.6 4.3-10.9 5-18 7.7-18.7 7zM1365.6 756.5c-3.1-9.5-1.6-10.9 2.4-2.1 3.4 7.5 3.5 8.2 1.6 8.9-1.1.4-2.1-1.4-4-6.8zM672.3 707.4c-4.9-1.8-12-8.5-13-12.3-.7-2.6 1.3-60.3 2.3-67.7l.6-4.2 5.8-.6c3.3-.4 8.3-1.4 11.2-2.2 16.2-4.5 24.1-6.3 30.7-6.9l7.3-.7-.3 38.7-.4 38.7-6 5.6c-11.6 10.8-27.3 15.6-38.2 11.6zM754.1 705.5c-8.1-1.8-17.6-6.3-22.2-10.6l-3.7-3.4.5-39.4.6-39.4 7.8.7c9.7.8 44.1 6.5 45.1 7.4.4.4 1.4 8.1 2.3 17.2 2.1 20.4 1.7 45-.9 52.1-4.6 12.6-15.6 18.4-29.5 15.4zM453.8 616.5c-43.5-6.8-87.7-37.3-116.7-80.4-16.4-24.3-20-36.7-20.8-72.2-.6-25.1.4-39.1 4.2-58.4 11.4-57.3 38.8-101 81.4-129.6 49-33 132.7-53.8 248.6-61.9 31.8-2.2 107.8-3.3 140.9-2.1 138.2 5 222.7 27 270 70.2 33.4 30.6 55.2 72.2 63.6 121.3 6 35.2 4 78.4-4.7 99-3.5 8.5-12 22.7-18.8 31.6-26.9 34.8-59.3 57.1-97 66.7-10.5 2.7-12.1 2.8-34 2.8-28.6 0-44.5-2.2-70.4-9.7-18.9-5.4-39.3-14.7-52.6-23.9-6.4-4.4-7.2-5.4-9-10.6-5.2-15.2-21.8-29.7-44.9-38.9l-8-3.3-1.1-4.9c-1.3-5.7-4.1-9.9-9.3-14-17.4-13.8-52.1-18.1-79.7-10-20.3 5.9-32.2 18.1-29.5 30.2l.7 3.3-8.6 3.9c-18.5 8.3-35 22.2-41.9 35.2-2.6 4.9-5.1 7.7-11 12.4-19.6 15.7-43 27.7-68.4 35.4-27.3 8.2-60.7 11.3-83 7.9zm83.7-50.9c29.7-5.2 58.3-17.2 80.7-33.8 11.1-8.2 30.3-25.4 37-33.1 17.2-19.7 27.5-39.9 32.9-64.7 3.1-13.7 3.3-39.7.6-53.3-9.1-44.9-38-81.8-79.8-101.6-39.3-18.7-79.7-19.9-123.9-3.8-66.2 24.1-109.2 65.8-122.5 118.7-3.7 14.8-4.8 24.2-4.7 41 .1 16.9 1.6 28 5.7 40.9 13.5 42.7 49.3 74.4 97.5 86.6 8.3 2.1 12.5 2.8 27.5 4.9 6.1.9 41.3-.4 49-1.8zm413-18.6c37.9-3.7 70.6-17.5 93.5-39.6 18.4-17.7 29.5-39.4 33.7-65.8 2.4-15.5 1.4-48.9-2.1-65.3-14.4-68.2-64.7-110.1-147.6-122.8-14.5-2.2-48.3-3.1-59.1-1.6-47 6.8-86.5 33-109.3 72.8-13.1 22.8-18.3 44.6-17.3 73.1.6 18.3 2.7 29.3 8.7 44.7 9.5 24.5 27.9 48 49.7 63.7 10.4 7.5 35 20.7 48.3 26 32.7 12.8 68.2 18 101.5 14.8z"/><path d="M480.2 557.4c-24.5-3.5-48.5-13.1-67.2-26.7-14.4-10.5-30.4-30.5-37-46.3-11.8-28.3-12.8-63.9-2.8-95.3 7.1-22.5 17.4-38.9 35.7-57.1 10.8-10.7 22.1-20.2 22.1-18.7 0 .3-1.6 2.5-3.7 4.9-9.6 11.4-19.2 28.7-24.1 43.5-5.7 16.8-6.7 23.8-6.7 45.3.1 17 .4 20.7 2.4 29 7 28.4 20.6 52 41.3 71.5 26.5 24.9 59.6 38.6 96.8 40.2 13.1.5 30-.6 34.5-2.3.8-.3 1.5-.1 1.5.4 0 1.2-14.5 6.1-25.5 8.7-19.5 4.5-47.9 5.8-67.3 2.9z"/><path d="M527.5 535.4c-17.2-2.5-29.8-6.2-43.4-12.5-39.8-18.6-67.6-54.5-74.7-96.4-2.4-14.3-1.5-37.3 2-50.5 6.5-24.4 16.8-42.3 34.5-60.1 34.1-34 84.4-47.5 132.1-35.4 50.9 13 89.1 52.6 99.1 103 2.1 10.4 1.8 36.8-.5 47.3-5.4 25.2-17.3 47-35.6 65.2-18.8 18.9-42.4 31.5-70 37.5-7.3 1.6-36.9 2.9-43.5 1.9zm110.6-82.6c12.1-6 21.1-16.9 24.3-29.3 6.9-26.1-10.1-52-37.1-56.7-21.6-3.7-43.4 9.8-50.3 31.1-1.9 6.1-2.2 8.6-1.8 16.7.5 8.4 1 10.3 4.2 16.9 5.9 11.9 15.2 19.9 28.1 24.1 2.5.9 7.8 1.3 14.6 1.1 9.9-.2 11-.4 18-3.9z"/><path d="M627.8 428.4c-3.1-1.6-5.8-6.1-5.8-9.5 0-3.4 3.8-8.6 7.1-9.8 6-2.1 13 1.7 14.4 7.9.9 4-1.7 9.6-5.4 11.4-3.7 2-6.8 2-10.3 0zM912.5 538.4c-18.5-2.1-25.8-4.4-13.7-4.4 10.9 0 27.8-3.4 42.2-8.5 42.7-15.1 77-50.6 89.8-93 4.6-15 5.7-23.3 5.6-41-.1-12.5-.6-18.3-2.3-26.5-4-18.9-11.8-36.8-23.2-53-6.8-9.7-24.4-27.2-33.7-33.5-4-2.7-6.9-5.1-6.4-5.3 1.6-.5 19.7 7.4 28.7 12.5 30.2 17.2 52.1 43.1 62.5 74.1 8.9 26.7 11 65.2 5 90.1-11.9 48.9-53.3 80.6-115 88.1-7.8.9-32.4 1.2-39.5.4z"/><path d="M880 522.3c-51.6-3.7-96.5-34.8-116.1-80.3-6.8-15.7-9-26.1-9.6-45-.4-12.4-.1-18.7 1.1-25.5 8.4-48.5 46.6-90.1 95.1-103.6 18.9-5.2 43.3-6.6 62.2-3.3 50.5 8.5 92.4 44.5 106.7 91.4 7.5 24.7 7.2 51.4-.9 75.7-6.1 18.2-15.1 33.4-28.2 47.3-23.4 24.9-54.3 39.8-88.8 43-10.7 1-12.2 1-21.5.3zM980.2 441c12.3-4.6 23.2-15.9 27.4-28.2 2.8-8.2 2.5-21.5-.6-30.1-4.6-12.9-15.6-23.4-29-27.7-5.8-1.9-8.6-2.2-16.4-1.8-8.3.3-10.2.8-16.8 4.1-9.7 4.7-16.8 11.8-21.5 21.5-3.2 6.4-3.7 8.5-4.1 16.4-.6 11.1 1.5 19.5 6.7 27.6 6.5 9.9 17.7 17.9 28.4 20.2 6.7 1.4 19.5.5 25.9-2z"/><path d="M971.3 412.5c-3.2-3.2-3.5-3.9-3-7.8 1.5-11.3 16-13.4 20.4-3 2.8 6.9-2.3 14.3-9.9 14.3-3.2 0-4.7-.7-7.5-3.5zM646.5 610.9c-7.7-1.2-15.6-5.1-18.9-9.4-3.6-4.7-6-14.5-5.2-21.5 1.4-11.8 9.9-24.1 23.2-33.6 5.9-4.2 25.7-14.4 28-14.4.6 0 3.8 1.6 7 3.5 21.6 13 61.7 13.9 85.6 1.9 3.7-1.9 8.3-4.7 10.2-6.4l3.4-3.1 6.7 2.5c13 5 22.7 10.7 30.1 18.1 9.9 9.8 11.9 14.3 11.9 27 0 8.9-.4 10.7-2.9 16.3-7.8 17-23.1 20.3-62.1 13.3-30.8-5.5-58.7-5.2-77.3.9-14.3 4.7-29 6.5-39.7 4.9zM290.1 500.9c-22.4-4.4-35.5-15.2-41.9-34.7-2.1-6.5-2.5-9.6-2.6-20.2 0-6.9.2-13 .6-13.5.4-.7 5.1-.6 14.5.3 12 1.1 41.3 1.2 45 .1 1-.3 1.4 5.5 1.7 25.6.3 22.6 1 31.8 3.1 41.3.5 2.1.4 2.2-7.7 2.1-4.6-.1-10.3-.5-12.7-1zM1139 492.1c-3-.3-5.4-1-5.3-1.6 2.4-15 3.4-29.6 3.1-47.7l-.3-20.8 3.5.8c7.5 1.6 29.2.5 45.4-2.2 8.7-1.5 16.1-2.4 16.5-2.1 1.3 1.4.6 41.8-.8 47.5-2.1 8.5-5.5 15.3-8.9 18.2-8.5 7.2-30.1 10.4-53.2 7.9zM279.3 423.4c.3-1.1 1.8-7.3 3.2-13.9 3.6-16.3 10.1-42.3 13-52.1 5.4-17.8 20.8-45.6 47.9-86.6l1.8-2.8-2.8-1.1c-4.2-1.6-17.4-4.9-19.6-4.9-3 0-3-2-.3-14.1 3.6-16.2 8-30.1 12.5-39.5 6.1-12.8 18.3-23.5 39.1-34.8l8.6-4.6.7 3.1c.3 1.7.6 5.7.6 8.8 0 7.9 2.6 31.5 5 45.2 2.3 13.7 6.1 27.2 9.5 34.3l2.5 5.1-2.2 1.5c-16.6 11.1-37 30.2-47.9 45-20.7 28.1-34.8 62.8-40.5 100.2-1.4 8.9-2.2 11.7-3.4 11.7-.8 0-7.5.4-14.9.7-12.7.6-13.3.6-12.8-1.2z"/><path d="M256.5 416.7c-24.4-9.9-39.4-26.4-44.1-48.8-4.5-21 2.8-52 16.3-69.9 10.7-14.1 28.1-23.2 49.8-26.1 14.5-1.9 47.4.7 46.8 3.7-.1.6-4.2 7.4-9.1 15.3-5 7.8-11.2 18.3-13.8 23.2l-4.9 8.9-4.5-.7c-18.2-2.6-30.5 2.3-33.8 13.3-2.1 7.1-1.5 16.3 1.3 22.1 2.3 4.5 8.7 11.7 15.2 17l2.2 1.8-2.8 12c-1.6 6.6-3.9 16.4-5.1 21.8-1.7 7.5-2.5 9.7-3.8 9.7-.9 0-5.3-1.5-9.7-3.3zM1141 413.7c-4.7-1-5.5-1.5-5.8-3.7-.9-7.2-5.6-28.7-8.2-37.3-16.7-56.1-53.4-101.8-100.5-125.4-4.9-2.5-9.1-4.6-9.2-4.7-.2-.2 2.4-6.5 5.8-14.2 3.3-7.6 7.8-18.4 10.1-23.9 3.1-7.8 26.3-58 27.3-59.3.1-.2 4.7 2.8 10.1 6.6 5.5 3.8 15 10.4 21.2 14.7 11.5 8 20.7 17.6 25.1 26.3 1 2.1 5.9 16.3 10.9 31.7 5 15.4 9.4 28.8 9.7 29.7.5 1.3 0 1.9-2.2 2.4-7.5 1.6-18 4.6-19.2 5.4-1.1.6.9 5.7 9.8 25 22.5 48.6 29.9 67.4 32.7 83 1.8 10.1 4 41 3.1 43.4-.5 1.3-2 1.6-7.9 1.5-4 0-9.8-.6-12.8-1.2z"/><path d="M1173.6 399.3c-.3-4.3-1.1-12.9-1.7-19.1-.6-6.3-.9-11.5-.7-11.6.2-.2 2.8-1.7 5.8-3.4 6.7-3.7 13.5-10.3 16.3-15.7 4.8-9 1.6-22.9-7-30.5-6.5-5.7-12.3-7.3-24.9-6.9l-10.5.4-9.8-21.3c-5.4-11.7-9.6-21.4-9.2-21.6 1.4-.9 16.6-2.6 23.1-2.6 38 0 62.8 18.4 73.6 54.5 2.1 6.9 2.8 11.9 3.1 21.5.6 14.1-.6 20.9-5.4 30.8-3.9 8-15.9 19.8-24.8 24.4-6.3 3.3-22.7 8.8-26 8.8-.9 0-1.5-2.3-1.9-7.7zM402.2 254.3c-6-15.6-10.2-39.8-12.3-70.7l-1.3-17.9 8-7.6c4.7-4.6 14.3-11.9 23.9-18.3 19-12.5 33.2-24.5 51.5-43.5 17.6-18.2 29.4-26 72.5-47.8 36.7-18.6 41.3-20 95-28.9 14.9-2.5 32.8-5.7 39.9-7.1 7-1.4 12.9-2.5 13.1-2.5.7 0 1.5 5.5 3.9 26 5.6 47.8 5.9 52.8 6.1 105.5.1 27.5.5 52.5.9 55.6l.8 5.7-15.8.6c-122.7 5-210.4 22-270.4 52.7-6.4 3.2-12 5.9-12.3 5.9-.3 0-1.9-3.5-3.5-7.7zM1000.4 236c-35.5-13.7-89.9-24.5-147.9-29.4-36.8-3.2-54.1-3.9-98-4l-45-.1-.7-13.5c-.4-7.4-.6-31.7-.6-54 .2-43.2-.6-55.3-6.7-104.9-1.4-10.7-2.2-19.7-1.9-20 1-1.1 51.7-.4 66.4.8 33.4 2.7 58.8 6.4 70.5 10.1 3.3 1 11.4 4.1 18 6.8 10.7 4.4 43.9 16.3 70.5 25.3 20.3 6.8 41.7 14.7 46.6 17.2 11.3 5.7 37.8 27.4 68.6 56.1l15.7 14.6-2.8 6.3c-1.6 3.4-6.3 13.4-10.6 22.2-4.2 8.8-9.8 21.2-12.4 27.5-10 24-18.4 43-19 42.9-.3 0-5.2-1.8-10.7-3.9z"/></g></svg>