<svg viewBox="0 0 1200 945" xmlns="http://www.w3.org/2000/svg" fill-rule="evenodd" clip-rule="evenodd" stroke-linejoin="round" stroke-miterlimit="2"><path d="M811 927c-4-1-11-3-14-4-7-3-23-12-35-20-10-6-12-8-12-9-1-1-3-2-4-2-2-1-5-3-7-5-13.823-6.912-28.998-19.998-40-31-8-5-15-11-22-17-3-2-11-8-18-14-23.578-17.427-46.246-36.246-67-57-4-3-10-7-12-10-14.3-9.533-13.184-10.638-27-21-8.686-8.686-9.993-8.669-24-4-10.285 2.236-20.648 4.1-31 6-2.387.438-4.353-.32-6.125 2-2.625 3.436-4.696 7.265-6.875 11-4 8-4 9-3 13 0 2 3 6 6 9 5.328 6.659 20 21.344 20 32 3.552 5.92 4.288 16.413 4 23-.478 10.941-1.368 23.278-9 32-10 12-22 21-32 22-3 0-8 1-10 2-12 2-13 2-15 0l-3-3h-1c-2 1-11-1-13-3-2-1-5-3-8-5-14.272-8.92-23.364-26.642-25-43 0-6 0-13 1-16v-8l-1-2 2-2c1-1 3-4 4-6 0-3 3-7 5-11 4-6 4-6 3-12 0-7-3-12-11-19-6.34-6.34-15.705-6.478-24-7-4.477-.282-10.363-.637-14 3-2 1-5 3-5 4-1 2-12 10-19 13-7.726 5.795-17.398-.196-25.625 3.75C302.22 776.141 298.508 789 287 789h-1v-1s2-3 5-6c9-11 11-15 7-18-6.865-6.865-20.118 13-25 13h-1v-1c0-1 3-4 7-8 10-9 11-12 6-19-2-2-4-7-4-9-1-3-3-7-4-8-9.798-6.532-21.839-8.075-32.625-12.125-7.128-2.676-7.424-4.57-13.546-8.795-1.195-.826-2.377-2.08-3.829-2.08h-1v2s3 5 6 9c9 9 15 18 15 20 0 0 1 1 1 2 5 5 16 24 20 34 3 6 6 14 8 17 3 7 3 13 0 17-1 2-2 4-2 5-8.517 12.296-20.837 11.568-32 2-1.789-1.789-24-16.507-24-25l-4-6c-8-15-10-18-14-30-9.49-22.144-10.381-47.144-18-70-2-4-3-4-11-7-6-1-14-5-16-8-4.539-4.539-2.519-17.962 0-23 7.288-10.932-3.601-21.772-10-30-14-16-24-29-26-32-3-6-11-18-14-22-7-10-19-33-22-41-4-13-4-18-3-24 2.268-7.937 6.132-15.556 15.805-12.171 1.915.67 3.455 2.127 5.195 3.171 18.572 9.286 29.634 28.668 38.299 46.61 3.081 6.379 6.755 12.578 8.701 19.39 2 8 10 29 13 37 1.282 3.845 2.074 10.148 4 14 2 3 4 8 5 12 2 4 4 9 5 10l2 1 3-1c3-2 10-19 13-33 4-17 6-22 9-23 7.141-7.141 9.419-17.551 12.75-26.625 1.232-3.355 3.496-10.498 7.25-12.375 2-2 11-13 14-17 1-2 3-5 5-6 1 0 4-4 6-6 2-3 4-6 5-8 5-5 2-7-29-31-7.928-5.285-16.265-12.265-23-19-4.561-1.52-7.439-6.48-12-8-2-1-5-4-7-6-3-1-7-5-10-7-11.658-5.829-18.587-13.19-29-21-9-7-17-14-18-18-1-1-2-6-3-10 0-9.501 2.849-24 15-24 3-1 8-2 12-3 3.788-1.337 25.045-3.047 20.54-13.352-1.06-2.425-2.622-4.598-3.97-6.876-3.401-5.75-6.68-11.577-10.277-17.207-3.597-5.632-7.061-11.393-11.293-16.565-6-6-16-19-27-32-7.063-7.063-9.317-12.78-8-22 1-10 3-13 18-24 5-4 15-11 19-12l10-5c11-5 30-12 38-13 3-1 9-2 12-3 5.211 0 28.294-1.823 33-3 17-3 37-2 51 2 13 5 35 17 56 33 3 3 8 6 12 8 3 2 9 6 13 9 10 8 28 21 33 24 2 1 8 6 13 10 5 3 15 10 22 15 6 4 15 10 18 13 4 2 9 6 12 7l4 2 2-1c0-12.429 9.324-25.408 18-33 11-7 15-9 30-7l6 1v-1c0-2 23-19 26-19l8-4c7-3 8-4 11-10 1.82-2.73 3.833-5.426 6.381-7.493 5.981-4.85 11.76 4.774 13.619 8.493 3 4 3 4 14 7 11 2 31 8 40 12 2 1 6 3 9 5 7 6 18 13 23 15 2 1 5 2 7 2 1-1 5-1 9-2 4 0 6 0 9 2 8.637 4.318 18.088 12.401 11.587 22.907-2.324 3.756-5.263 7.184-8.587 10.093-4 5-4 5-4 18 1 14 1 14-2 21-6.854 13.708-3.462 16.385-8 30-2 10 0 12 11 6 9-4 19-14 26-25 6-8 10-12 18-17 5-3 7-5 9-10 7-12 10-14 23-18 9-2 17 0 44 10 11 4 17 8 25 13 2.588 1.849 7.653 5.36 11.068 5.566 11.949.721 18.209-9.981 23.932-18.566 6-11 9-14 19-21 4-3 7-9 12-9 0 0 3-1 5-2 1.083-1.083 16.356-10 19-10 10-6 33-12 40-11 14.29 2.382 29.991 10.991 40 21 3.584 0 11.414 10.349 13 12 2 0 6 4 8 9 1 3 3 7 4 8 8 9 12 45 8 64-1 5-2 12-3 17 0 5-2 12-3 17-1.412 3.529-1.74 7.414-3 11-3.065 8.725-5.138 11.221-10 19-3 3-3 4-2 6 0 1 5 6 11 12 22 21 43 44 48 52 1 2 4 6 6 10 8 10 9 21 3 29-2 3-4 4-10 6-6.326 1.054-14.524 6.397-21 7-5.285.492-22.08-2.032-27-4-13.874-6.937-14.373-5.567-28-13-11-5-23-11-25-12-3-2-6-4-7-5l-4-2c-1 0-3-1-5-2-6.905-6.905-11.439-.468-18 5-14 12-19 15-32 22-6 3-13 7-16 9-2.25 2.25-24.376 17.782-26 19-4 4-7 6-11 7-2 1-6 2-8 3-5 3-4 6 5 13 4 4 11 10 15 15 5 4 12 10 16 14 13 10 30 24 37 29 3 3 12 10 18 17 13.647 12.282 25.416 29.168 16 48-3 7-11 16-20 23-12.134 9.1-11.775 9.632-17 24-2.713 9.947-8.778 26.177 1 34 3 2 10 7 15 10 12 8 17 14 22 22 3.58 7.16 5.824 21.764 1 29-2 5-11 13-18 16-45 20-80 33-93 35-4 1-13 1-20 2-8 0-16 1-18 1-2 1-7 0-10 0zM83 700c-1.581-1.581-2-4-3-6-.333-.667-.255-2-1-2-3-2-9-27-11-45-4-37-2-62 7-80 2-3 3-7 4-9l1-4h2l-1 3c0 2-2 6-3 10-8 18-9 34-7 64 1.463 26.342 3.722 29.533 10 55 .82 3.327 1.341 8.341 4 11 1 2 2 4 2 6v2h-1s-2-2-3-5zm-30-62c0-7.364-.959-14.71-2-22-2-24 1-44 9-60 6-14 10-20 13-20h1v3h-1s-2 3-4 7c-3 4-5 9-6 11-3 4-7 16-8 23-2 10-1 46 1 53 0 2 0 4-1 4l-1 2-1-1zm886-441c0-2.907 4.981-5.341 6.75-6.375 4.941-2.886 19.103-10.478 23.25-14.625 2-1 5-2 9-2 4-1 11-2 16-4 20-7 31-9 54-11 20-1 22-1 29 0 11.498 2.3 27.183 2.637 37 10l10 5c3 1 7 4 9 6 2 1 5 4 8 5 2 1 5 3 5 4l1 2v1h-1l-8-4c-4-3-8-5-8-5-1 0-2-1-3-1-2-3-19-12-26-13-4-1-9-3-11-3-6-2-34-2-42-1-4 1-12 2-16 2-11 1-27 5-47 12-8.989 2.996-16.266 2.633-25 7-6.726 2.883-13.825 5.825-19 11l-2 1v-1zm-41-26c0-1 8-8 15-12 3-3 10-8 16-13 14-10 21-15 30-17 4-2 11-4 15-5 3-2 9-4 12-5 2 0 11-3 18-6 15-5 25-8 36-8 3-1 11-2 16-3 7.546-2.322 14.874-3.669 22.774-3.953 3.027-.109 10.226-.031 10.226 4.953v1l-2-1c-5-2-18-1-32 4-5 1-12 2-15 3-5.082 0-16.806 2.403-22 5-2 0-9 2-16 5-6 3-13 5-13 5-1 0-2 1-3 2l-1 1h-2c-1-1-19 5-26 8-13.671 6.835-26.81 15.858-39 25-10 8-15 11-18 11h-2v-1z" fill="#0e0e0e" fill-rule="nonzero"/><path d="M809 922c-7-2-18-8-22-11-2-2-5-3-7-4-3-2-23-15-31-21-3.399-3.399-7.993-5.344-12-8-12.089-8.013-12.273-7.465-23-17-24-19-26-20-33-26-4-2-11-7-14-10-15-12-18-14-24-19-5.035-2.518-22.383-17.383-25-20-5-4-11-9-12-11-2-3-5-6-8-8-5-4-11-9-15-13-1-2-6-6-17-15-2.247-1.966-9.223-6.07-8.459-10.562.974-5.722 9.107-2.79 11.459-.438 10.018 5.009 18.254 13.003 27 20 36 31 51 43 58 49 10 10 37 32 46 39 4.472 2.236 8.007 5.99 12 9 17.674 13.324 35.822 26.043 53 40 8 7 22 16 27 18 2 1 9 3 15 4 17 3 36 2 58-4 15-4 19-5 39-12 11-4 24-8 29-10 5-1 14-4 19-7 5-2 9-4 10-4h2l1 2c1 5-5 9-22 17-6 2-13 5-17 7-3 2-6 3-7 3 0 0-2 1-5 2-9 4-46 16-59 19-22.814 3.802-22.741 2-46 2zm9-17c-8 0-18-3-23-6-6-2-17-10-22-14-2-2-8-6-12-9-5-4-11-9-14-12-3-2-11-8-17-13-6.853-3.916-9.264-6.697-15-12-1.424-1.317-3.697-4-6-4-1-1-4-3-7-6-4.192-6.288-25.784-22.088-31-26-7-6-13-10-38-30-14-11-33-27-36-30-1-2-6-6-11-10l-9-9c-1-3 0-5 3-6 7-1 17-5 23-8 3-1 10-4 15-6 4-2 12-4 16-6 9.537-6.358 15.28.21 23 6 10 8 24 19 28 22 5 4 26 21 30 25 11.368 12.992 26.465 21.279 41 30 10.726 7.15 19.164 10.582 30 16 .117.039 19.555 4.555 21 6 3 1 9 9 14 18 23 39 32 52 36 54 2 0 9-3 9-6 1-2-1-12-3-18-6.312-13.772-13.121-28.364-18-43-3.556-9.779 2.403-14.282 11-17 10.382-3.282 17.8-6.08 28-2 9 4 14 8 16 13v11c-1.188 7.72-1.43 15.567-1.625 23.375-.139 5.544-.173 11.137.625 16.625 1.61 11.063 10.536 1.902 12.484-2.501 2.106-4.757 6.558-21.062 9.516-25.499 3-9 7-9 15-1 2 1 6 4 9 6 7 3 14 9 16 14 6.151 12.303-7.63 25.726-19 28-1 0-3 1-4 2-3 2-14 7-37 14-4 1-9 3-12 4-3 2-8 3-10 3-3 1-10 3-16 4-14 5-34 7-45 6zm-369-28c-5-1-11-2-13-3l-9-3c-5-3-15-13-19-20-5-8-6-15-6-28 1-10 1-11 4-18 3.844-9.61 8.804-17.483 18-23 9-6 29-12 35-10 3 0 21 9 27 13 7 5 16 18 18 26 3 10 2 15-3 30-3 11-5 15-8 18-8 10-22 17-31 18h-13zm19-33c3.169-1.584 10.061-5.373 10.375-10 .248-3.66-.07-7.344-.375-11 0-12 0-13-3-16-3-4-10-9-14-10-2 0-5 1-9 3-3.062 1.413-7.63 3.631-10.36 6.169-7.543 7.012-7.693 20.41-2.64 28.831.995 1.493 3.49 5.875 5 7 1.255.936 2.787 1.506 4.313 1.859 5.988 1.388 13.653 2.554 19.687.141zm386 22c-6-8-14-20-16-24 0-1-2-5-3-7-4.549-7.278-13.594-22.051-17-30-.487-1.136 1.386-3.329 2.25-3.625 2.172-.745 4.455-1.294 6.75-1.375 4.825-.169 5.674 1.123 8 5 3 2 6 8 7 12 2 4 6 12 8 17 11 22 13 30 11 33-1 3-4 2-7-1zm50-19c-1-3 0-13 4-34 1-5 2-16 2-23 1-17 2-20 5-22 3-3 10-4 11-2 3 2 2 6-3 23-2 9-5 21-6 26-1 9-7 29-8 32-1 1-2 2-3 2h-1l-1-2zm-652-29c-5-3-13-8-15-12-1-1-2-3-3-3 0 0-3-3-5-6-1.671-3.342-3.924-7.413-7-10 0-1-2-3-3-6-9-13-11-20-22-61-2-6-3-14-4-17 0-4-2-12-3-19-2-7-3-13-3-14l1-1 1 1c1 1 4 6 7 12 3 5 7 12 9 15 3 3 8 10 13 16 4 5 10 13 14 17 7 9 12 17 23 38 8.193 16.386 10.588 20.924 14 39 .536 2.842-1.08 6.08-3 8-3 4-9 5-14 3zm553-24c-3.113 0-15.814-2.271-18-3-17-8-26-13-37-21-6-5-14-10-16-11-3-2-10-8-16-13-14.872-14.872-23.396-21.166-40-34-3.956-3.058-7.528-6.764-12-9-20-14-29-21-42-32-4-3-10-8-14-10-4-3-12-9-17-15-11-10-30-25-39-30-24.216-15.135-42.575-38.345-67-53-8-6-14-10-30-23-2-1-8-6-14-11-7-5-13-10-15-12-3-1-8-6-12-9-5.576-3.834-11.079-7.787-16.375-12-4.125-3.282-7.756-8.565-12.625-11l-3-1v-1c0-1-4-4-9-8-5-3-10-7-11-9-2-1-6-5-10-8-9.372-12.496-23.203-21.042-36-30-4-2-11-8-16-12-16-14-33-27-45-35-12.158-7.599-22.176-18.588-35-25-11.165-8.374-21.278-18.065-32-27-14-10-29-23-32-27-1-2-6-6-10-9-12-11-27-27-31-34-3-6-4-12-1-13h1l1 2c1 2 2 4 4 4 1 1 8 8 15 16 14 14 20 20 38 34 11.482 7.655 21.518 17.345 33 25 3 3 12 9 18 14 7 5 17 12 22 16 16 10 21 14 44 33 12 10 24 20 27 22 4 3 8 7 11 9 8.541 8.541 18.568 15.455 28 23 16 15 27 23 57 44 3 3 9 7 14 11 4 3 11 8 15 11 4 2 12 9 18 14 7 5 16 12 21 15 4 4 13 11 20 16 4.802 4.162 9.361 8.638 14.5 12.375 2.061 1.498 7.597 1.722 9.5 3.625 0 1 2 2 4 3 2 2 9 7 15 12 7 5 16 13 21 16 5 4 11 9 13 12 2 2 8 6 12 9 20.137 15.49 40.082 31.23 60 47 14.659 11.606 28.162 23.921 44 34 5 4 12 10 16 13 3 4 7 7 7 7 1 0 19 14 26 20 12 12 33 27 39 30 17.404 4.351 41.14 7.43 58-1 9-6 83-31 95-33 3.302-1.101 6.707-1.875 10-3 1.383-.473 6.486-4.029 8-1h1l-1 3c-2 4-8 7-17 12-5 2-9 4-9 5-1 0-4 2-7 3-4 0-14 4-23 8-9 3-19 7-22 8-7.987 1.997-19.971 11-29 11-3 1-10 3-16 5-11 3-22 5-27 3zm89-7c-2-2-5-5-5-6l-1-1 1-2c2.743-2.743 7.514-4.325 11.224-4.948 1.825-.307 4.135.254 5.023 2.059 1.571 3.192.566 6.637-.247 9.889-2 6-4 6-11 2zm-474-15c-1-1-3-3-4-5-3-5-10-13-15-18-4-5-7-11-6-14 0-2.815 4.313-3.235 5.866-3.277 9.19-.249 24.979.585 34.134-.723 4-1 15-2 24-3 14-1 16-2 22-4 7-3 8-4 10-1 2 1 1 5-4 15-4 7-9 19-9 25-1 2-2 4-3 5l-1 1-5-2c-10.874-5.437-31.29-2.474-41 4-4 2-6 2-8 1zm383 0c-4-1-9-2-12-3-11-6-20-12-27-17-4-3-10-8-14-10-3-3-7-6-8-8-1-1-3-4-6-6-6-5-33-26-40-32-3-3-10-8-15-12-30-20-31-21-44-33-2-2-11-9-19-15-9-6-18-13-21-15-3-3-8-7-12-9-7.517-7.517-15.834-14.195-24-21-3.841-3.201-8.464-5.464-12-9-5-4-12-9-16-12-8-5-15-11-25-19-3-2-8-6-12-9-4-2-7-5-8-6 0-1-4-4-8-6-11.455-11.455-26.04-19.28-39-29-8-5-11-8-33-24-6-5-15-11-20-15-5-3-12-8-16-12-4-3-7-6-8-6 0 0-5-4-11-10-6-5-13-11-14-12-2-1-6-3-9-6-22.095-19.333-36.73-32.076-60-50-7.495-5.773-24.23-16.23-31-23-3-2-7-5-10-7-13-8-34-24-42-32-4-3-8-6-10-7-4.298-1.719-7.926-4.85-11.47-7.828C150.418 276.474 138.957 259.957 125 246c-4-5-5-11-2-17 3-5 12-12 27-19 13-7 20-9 35-13 6-2 14-4 18-5 5-2 8-2 58-5 8 0 12 0 16 1 16.051 8.025 17.362 4.47 33 13 27 15 39 23 43 27 1 2 5 5 9 8 4 2 8 6 11 8 4 4 7 7 39 28 12 8 26 17 29 20 4 2 13 9 21 14 14 10 18 13 22 23 3 6 3 7 3 13-2.72 8.161-5.194 29.548-6 36-1 15-1 16 1 22 2 4 4 9 6 11 3.792 6.635 13.631 15.932 20 20 3.394 2.168 7.546 2.928 11 5 12 7 12 7 25 10 17 3 35 5 51 4 8 0 15-1 16-1 0-3.029 3.821-2.51 5.621-2.355 12.112 1.048 23.936 1.587 35.379 6.355 7 3 14 7 15 8 2 1 6 4 10 8 4 3 10 7 12 9 3 1 5 4 6 4l6 6c3 1 11 7 18 13 16.659 13.883 33.898 28.932 52 41 5 4 15 12 22 18 7 5 15 12 18 14 16 12 27 21 32 25 3 3 9 8 14 11 8.515 8.515 18.485 15.485 27 24 7 5 26 22 41 35 6 5 15 13 20 16 7 6 14 14 16 19 3.775 3.775 1.333 18.532-3.056 20.952-8.799 4.852-25.24 10.125-34.944 13.048-2.514.757-6.927.927-9 3-2 1-6 3-9 4-3 0-6 2-7 2-6.613 2.48-14.123 3.082-20 7-4 1-9 3-12 4-2 0-9 3-14 5-7 3-12 5-29 9-4 1-9 1-20 0zm-471-24c3-2 8-3 14-1 8 3 6 7-7 15-6 3-9 4-13 5-2.49 0-5.732.558-8-1-1.306-.897-1.215-3.546-1-4.75.559-3.124 1.387-6.735 4.25-8.625 3.317-2.19 7.828-1.703 10.75-4.625zm-30 11c-4-4-4-6-1-11 3-4 6-4 9 0 .553.553 1.114 1.115 1.536 1.773 2.021 3.157 1.361 6.397-.911 9.227-1.086 1.353-2.699 3-4.625 3 0 0-2-2-4-3zm-13-12c-3-2-5-9-3-10 2-3 11-2 13 2 1 4-4 10-8 10 0 0-2-1-2-2zm69-6c-4 0-8-1-9 0-2 0-14-2-18-3-4-2-4-4-3-14v-14l1-7-2-1h-1v3c0 5-3 22-4 24-3.342 5.012-7.019 4.491-12 2-1-2-1-3 0-9 1-8 2-17 4-33v-9h-3v7c-2 13-3 26-4 33-2 10-3 11-13 8-9-3-15-5-15-7l-1-2 2-2c3-2 13-24 15-32 1-3 2-7 2-9 4.729-18.916 5.774-39.739.25-58.625-3.097-10.588-8.48-21.494-13.25-31.375-5.264-11.844-16.382-26.953-29-32-10.362-5.181-8.912-7.217-19.25-12.125-2.716-1.289-6.772.247-9.139-2.301-2.318-2.495 1.683-7.938 2.571-9.141 3.426-4.642 13.682-15.297 16.818-18.433 10-9 15-13 25-19 6-4 12-7 13-7 0 0 4-2 8-5 13.526-8.695 32.694-20.107 50-20 4.346.027 8.789 3.707 12 6 12 10 21 16 24 17 8.028 8.028 17.135 14.908 26 22 5 3 10 7 12 8 1 2 5 4 7 6 .96.32 20.921 14.947 21 15 4 3 11 8 27 22 3 2 8 6 10 8 3 2 11 10 18 16 7 7 16 15 21 17 6.248 4.686 11.752 10.314 18 15 11 10 12 11 7 15-7.861 4.866-17.855 8.122-22.359 17.016-3.2 6.317 2.378 10.984 8.359 10.984 7-1 25-6 32-10 6-3 7-3 12-3 5 1 17 7 20 11 3 3 17 13 18 13l8 6c4 4 9 8 11 10 2 3 4 5 4 6-1 2-10 7-21 10-4 2-10 4-13 5-18 7-22 8-28 10-4 0-12 2-17 3-13 4-25 7-34 9-4 1-9 3-11 4-2.246 1.021-4.538 2.134-6.984 2.453-9.347 1.219-7.296-9.013-10.016-14.453-3-3-4-3-14 1-1.693.423-16.243 2.622-19 4-3 0-9 2-15 2-7 1-16 1-20 2-11.119 0-24.001-.124-35 2-3.908.755-3.222 10.222-5 12-3 1-22 2-29 0zm-102-22c-10-3-17-6-20-10-9-7-27-25-27-26v-2h4c5 0 14-2 19-4 3-2 13-12 15-15 5.952-17.855 4.527-37.982-12-49-10-7-17-10-26-10-5-1-9-2-9-2-1-1-1-3 0-5 0-2 0-5 1-7 1-8 14-37 18-40 7.017-4.678 22.999.999 28 6 2 1 6 5 10 7 12.547 9.411 19.672 17.565 27 31 3 7 7 15 7 19 3 11 6 39 4 43-1 1-2 7-2 15-2 17-5 24-12 35-5 8-6 9-11 11-7 4-11 4-14 3zm-90-49c-7.444-3.722-11.362-16.532-3.781-22.141C169.441 642.516 178.206 641 187 641c3.028.303 7.332.697 10.125 2.125 5.271 2.694 6.218 9.368 5.875 14.625-.107 1.645-.68 5.93-2 7.25-2 3-5 2-12-4-3-3-7-6-8-6h-2v2c-.687 0-.861 1.57-.875 1.875-.13 2.79.031 5.596-.25 8.375-.097.957-.195 2.07-.875 2.75-1 3-6 3-11 0zm44 1c-4.283-8.566.973-19.036-5-27-3-6-8-11-10-12-7-1-8-8-3-14 4-6 10-9 17-9 7-1 12 1 22 7 9 6 12 10 13 20 1 7 1 8 0 15-3 10-4 12-9 15-6 4-10 5-17 6-5 0-7 0-8-1zm319-20l-2-1v-2c0-1.777 2.046-4.436 3.25-5.5 6.153-5.435 9.535-7.899 17-11.375 3.342-1.556 7.887-2.975 11.578-1.438 3.728 1.554 11.003 8.207 4.172 10.938A218.176 218.176 0 01551 645c-16 6-19 7-22 6zm-368-22c-1-1-6-8-11-15-6-7-13-16-15-19-3-4-8-12-12-16-6.614-8.267-10.401-19.401-18-27-9.786-15.378-18.184-29.393-19.648-47.666-1.248-15.568 19.495-6.345 24.648-.334 8 9 21 27 26 38 6 13 11 26 14 34 8 21 16 48 16 53v3h-1c-1 0-3-1-4-3zm683-38c-17-12-25-18-33-24-5-4-13-10-17-14-13-10-28-22-28-23-1-1-16-14-23-19-10-7-16-11-24-18-.453-.226-14.761-9.761-16-11-2-3-8-7-12-10-5-4-10-8-11-9l-3-3 3-7c1-3 4-9 5-13 0-3 2-7 3-8 1 0 5-2 9-2 6-1 11-2 32-6 5-1 14-3 19-3 5-1 13-3 17-4 5.959 0 31.04-2.434 35-3 22-5 21-5 19 14v2l6 2c5 2 8 2 16 1 6-1 14-1 18-2 3-1 13-2 22-3 8-1 17-3 19-3 3-1 7-1 9-1 2 1 8 0 14-1 13-2 11-2 33 0 24 1 37 5 38 10v2l-2 1c-2 1-15 2-53 2-28 1-53 1-55 2-3.956.989-14.709 5.801-12.5 12.375 1.07 3.185 6.193 7.548 8.5 9.625 5 4 13 10 18 14 5 3 11 8 14 10 2 2 10 8 18 13 6.885 4.711 13.543 9.75 20.125 14.875 1.732 1.348 5.904 5.459 5.875 8.125-.023 2.153-4.399 6.909-5.659 8.149-9.38 9.229-20.863 17.474-32.341 23.851-7.168 4.301-21.497 15.832-31 19-2 1-6 4-9 5-8.311 5.541-23.919 18.041-34 13zm205-37c-12-4-33-15-55-29-6.289-3.145-13.028-6.028-18-11-7-6-13-10-22-16-16-10-21-14-25-17-2-2-5-4-5-4s-3-2-5-4c-6.483-4.322-21.03-16.03-26-21l-6-6 1-1c0-1.121 1.418-1.955 2.5-2.25 2.744-.748 5.656-.726 8.5-.75 27.332-.227 54.667-.002 82 0 11.168.001 15.333-1 26 3 4 2 9 5 12 6 6 5 31 28 37 36 3 3 9 10 14 15 10 9 16 18 22 31 4 9 4 11-1 16-2 3-4 4-11 6-12 3-20 3-31-1zm-27-2c-3-2-7-4-10-6-4.669-1.556-8.708-4.592-13-7-9.375-5.259-18.884-10.303-28-16-4-3-10-7-13-9-4-2-10-6-13-10-9.68-8.066-20.052-15.274-30.375-22.5-7.284-5.099-8.371-3.246-14.625-9.5-5-3-10-8-12-10-7-5-8-6-8-8v-2h2c1-1 6 1 11 5l5 5c8.527 4.264 14.473 12.736 23 17 3 3 9 7 14 10 6.779 6.779 19.158 13.733 27 19 28.574 19.192 27.746 20.36 58 37 7 3 12 7 12 8v1h-3c-1 0-5-1-7-2zm-768-68c-7-4-14-10-28-22-8.693-8.693-12.761-10.071-22-17-7-5-10-7-21-14-3-3-8-7-10-9-4.16-2.774-7.847-6.215-12-9-2.192-1.47-9-2.938-9-7-8.148-8.148-24-16.388-24-30v-3l1-1c5.254 0 8.839 6.032 12 9 9.267 8.701 14.416 12.944 25 20 6.76 6.76 30.816 24.012 35 27 6 5 14 11 17 14 3 2 9 7 14 11 17 13 33 26 34 29l2 2-1 2c-2 2-5 1-13-2zm17-8c-2-1-7-5-11-8-3-3-11-9-16-13-5-3-11-8-13-10-2-1-6-4-9-5-3-2-5-4-6-4-1-2-9-9-16-13-5-4-12-10-33-28-5-5-11-10-13-11-6.601-4.401-30.276-23.945-10-28 9.524-2.597 19.19-4.902 29-6 1.367-.153 2.518 1.299 3.375 2.375 1.726 2.169 15.862 29.269 23.625 17.625 1-3 1-3-3-13-2-8-3-10-2-11l1-2 2 1c2 1 23 16 33 24 3 3 8 6 11 7 2.754 1.377 5.938 4.938 8 7 5 3 21 15 29 22 3 3 8 7 10 8 10 7 24 19 27 23 3 3 6 18 4 20-1.068 3.205-5.881 5.673-8.5 7-4.788 2.425-9.739 4.522-14.5 7-7.131 3.713-17.334 12.933-26 6zm54-21c-1 0-1-3-2-5 0-3 0-5 1-6l2-1 2 2c2 2 3 6 0 9-1 2-3 3-3 1zm338-7c-3-1-6-3-8-4-1-2-3-2-5-2-1 1-4 0-7 0-4-2-9-1-27 0-15 1-22 1-23 0l-1-1 1-2 1-2-3-3c-5-5-14-8-19-5-2 1-3 1-5 0-1-1-3-1-3 0h-1l1 4c0 4-2 6-7 9-4.389 1.755-11.174.247-15.235-1.088-19.517-6.415-39.58-17.239-49.765-35.912-4-8-4-8-4-18 1-17 4-34 5-35 2-3 5-2 7 1 2 2 2 7 0 11 0 3 4 7 9 8 4 1 4 1 7-2 5.431-7.241 16.582-4.279 23 0 8 7 20 12 28 12 13 2 23-2 37-14 6-6 7-6 12-6 5 1 7 1 10 4 8.583 5.364 9.796 11.322 13 21 2.525 7.627 3.748 17.874 12 22 1 1 8 3 16 5 7 2 13 4 14 4 2 2 1 5-1 15-4 13-4 15-7 16-3 2-3 2-10-1zm-91-4c-3-2-2-4 2-9 3-4 4-4 7-4 2 1 4 1 6 2l3 2v1c-.284.851-1.38 2.116-2.047 2.672-3.33 2.778-4.322 3.435-8.219 5.344-.812.398-2.799 1.044-3.734.984l-4-1zm441-3c-3-2-9-7-12-11-6-5-9-7-14-9-12.031-5.156-25.457-2.579-38-3-10.643-.357-23.629-4.186-34 1-3 0-10 1-17 2-8 0-15 1-16 1-3 2-41 4-46 3-2 0-5-1-6-1-2-2-1-8 2-13 8.607-17.214 19.316-34.503 32-49 4-3 8-8 10-11 22-37 36-51 63-64 6-3 13-6 17-6 8.886-2.962 19.588-5.345 29-4 15 3 27 10 41 28 5 6 9 11 10 15 1 3 3 7 4 9 6.945 11.111 6.434 25.614 6 38-.351 10.016-.352 20.114-2 30 0 5-1 12-2 14 0 6-6 22-8 26-2.286 3.048-6.896 7.449-11 8-1.797.241-6.649-3.324-8-4zm-320-19l-2-2 1-3c1-1 6-5 15-9 7-4 15-8 16-10 4-3 8-9 15-19 6.047-8.063 21.201-27.377 33.612-19.992 5.812 3.458 6.656 6.655 11.388 10.992 6 6 14 13 16 16 6 5 14 14 14 16v2l-1 1c-11.785 0-24.459-.27-35 5-7 2-24 5-36 6-6 1-14 2-18 3-4 0-9 1-13 2-4 0-8 1-9 2-4 1-5 1-8-1zm-30-13c-12-3-17-8-19-19 0-2-2-8-3-13-.486-1.783-2.554-8.073-1.375-10.125 1.369-2.383 6.524-1.696 8.375-1.875 10.575-1.024 20.071-1.745 30-6 3-2 6-3 8-3h2v1c1 1 0 4 0 6-2.428 8.498-6.872 32.643 9.391 27.085 2.59-.885 5.332-1.567 7.609-3.085 7-4 20-14 25-22 10-14 16-19 23-21 2.37-1.58 5.161-2.772 8-3 3.766-.302 7.911 3.179 6 7 0 0-4 3-9 6-5 2-11 6-14 9-10.505 8.754-8.431 10.397-17 21-7.882 9.754-11.711 13.356-23 19-8 5-10 5-19 6-13 1-14 1-22 0zm163-16c-15.484-8.602-26.704-19.704-39-32 0-1 1-4 3-6 7-8 6-14 0-21-4.877-6.503-11.975-3.756-19-2-11.122 3.707-7.991-6.221-2.234-9.829 9.021-5.657 21.333-5.371 31.234-3.171 11 3 33 12 39 17 3 2 8 6 11 8 10 5 10 8 4 20-7 13-21 31-24 31l-4-2zm-267-19c-11-4-18-8-21-13-1-3-1-10 0-10l1-1 1 1s2 2 4 5c3 4 12 9 19 11 2 0 6 0 10-2 8-2 15-6 20-16 4.901-8.169 5.991-18.011 0-26-3-7-10-12-19-15-8-3-17-2-26 1-2.519 1.44-5.277 2.62-7.375 4.625-3.37 3.22-6.706 14.267-12.625 6.375-1-1-4-3-5-4-5-2-6-5-5-10 1-3 2-7 2-10 2-9-4-18-13-22-3 0-6-2-6-2l-1-1 2-2c1-1 3-1 8-1 10 1 19 6 30 15 8 7 8 8 21 12 7 2 16 5 19 5 7 2 14 7 22 14 9.033 10.324 14.096 24.857 6 37-5 9-16 19-23 22-8 3-19 4-26 1zm-52-7a4.828 4.828 0 01-1.045-.958c-2.112-2.579.388-6.042 2.045-8.042.57-.688 1.733-2.254 2.875-2.25 1.052.004 1.71 1.627 2.125 2.25 2 2 2 6-1 9-2 3-3 2-5 0zm-320-6c-1.302-3.907-1.935-3.507-4-7-5.066-8.568-5.546-10.091-10-19-3-5-5-10-5-11l-1-2 1-1c4-1 14 9 17 18 1 2 3 8 5 14 2 5 4 10 4 11-2 2-4 1-7-3zm368-5c-6-4-10-8-11-13-1-10 2-22 9-27 3.114-2.076 7.448-2.339 11-2 12.122 1.158 24.931 6.102 26 20 2 9-2 16-12 22-7.36 2.944-16.041 5.219-23 0zm5-15c4-3 1-9-5-9h-3l-1 2c-1 3 1 7 3 8 3 1 4 1 6-1zm69 16c-2.216-.511-11.498-.909-13.032-5.697-.814-2.542-.974-12.182 3.032-12.303 2.107-.064 4.114 1.057 6 2 7 3 13 3 28 2 14-1 20-3 34-9 5-2 7-3 8-2l2 1-1 2c-1 5-19 18-29 21-9 3-27 4-38 1zm-107-1c-2.362 0-4.145-1.881-6-3-2.301-1.389-4.596-2.798-7-4-3.591-1.539-7.018-4.339-7.705-8.408-.144-.852-.075-1.739.065-2.591.17-1.036.417-2.078.857-3.031 2.205-4.769 6.065-3.201 9.783-.97 2 2 6 3 9 4 6 1 9 4 10 9 1 6-3 10-9 9zm254-15l1-3 3-1c1.982 0 4.025.183 5.563 1.591a20.269 20.269 0 011.837 1.927c.421.501.806 1.297.725 1.982-.187 1.574-2.059 2.7-3.125 3.5-.92.92-2.051 2.198-3.5 2.25-1.232.044-2.358-1.145-3.103-1.909-1.403-1.44-2.397-3.291-2.397-5.341zm-143-3c-8-2-11-4-17-14-4-9-13-18-21-22-3-2-11-5-17-7-7-2-15-5-17-5-2-1-6-2-7-3-3 0-16-13-19-18l-1-2 3-3c13.4-16.08 36.751-20 56-20 18-1 19-1 26 1 8 2 16 6 18 8 1 0 4 1 6 1 4 1 6 2 8 4 2 1 6 4 9 6 2 2 6 5 9 7 4 5 5 7 2 12l-1 3 4 5c4 4 5 6 7 12 .641 3.848 3.583 13.209 10 10 5-1 8 5 5 10-3 3-21 13-27 14-8 1-31 2-36 1zm-116-7c-3-2-4-5-1-7 2-3 5-2 8 0 2 3 3 4 0 6-1 2-4 2-7 1zm-30-16c-4.529-4.529-7.821-12.864-5.762-19.266 2.44-7.582 8.987-13.79 16.762-15.734 6-1 9-1 12 3 3 3 4 17 2 22-2.614 6.969-9.834 14.184-17.892 13.074-3.66-.504-4.069-1.048-7.108-3.074zm5-7c.701-.654 1.736-1.591 2.347-2.438 1.255-1.738 1.461-4.292.777-6.305-.81-2.384-3.188-5.636-5.96-3.622-2.035 1.479-3.767 3.987-2.83 6.596.374 1.043 1.207 2.19 1.916 3.019.845.989 2.188 2.75 3.75 2.75zm197-3c-1.946 0-2.323-3.072-1.313-4.234 2.188-2.517 4.321-4.27 7.313-5.766l3-2v-4l-6-1c-4 0-8 0-9-1h-2v-2c1.252-3.757 6.299-5.781 9.844-6.328 6.637-1.024 16.624-.98 18.375 7.344.402 1.913.199 4.101-.219 5.984-2 5-13 15-18 15 0 0-2-1-2-2zm-109-69c-2-1-1-5 1-7 1.966-1.475 5.781-2.815 7.313 0 .224.412.39.858.507 1.313.115.444.179.905.184 1.363.017 1.552-1.004 2.807-1.004 4.324-1 1-7 1-8 0zM451 837c-3-1-5.845-3.873-8-6-.93-.918-2.385-2.489-2.625-3.875-.349-2.015-.294-4.081-.375-6.125-.064-1.614-.056-4.189.5-5.75 1.207-3.388 5.195-6.249 7.861-8.145 4.369-3.106 10.516-6.1 15.849-3.437 3.411 1.703 5.925 5.135 7.79 8.332 3 5 3 10-1 17-5 11-10 13-20 8z" fill="#fff" fill-rule="nonzero"/></svg>