<svg width="16" height="16" viewBox="0 0 16 16" fill="none" xmlns="http://www.w3.org/2000/svg">
<path d="M7.98401 0C6.53334 0 5.18933 0.36268 3.952 1.08801C2.74666 1.79201 1.79201 2.74666 1.08801 3.952C0.362679 5.18933 0 6.53334 0 7.98401C0 9.12534 0.240001 10.2187 0.720001 11.264C1.168 12.2667 1.80266 13.1467 2.62399 13.904C3.45599 14.6507 4.38934 15.2053 5.42401 15.568C5.60534 15.5893 5.744 15.552 5.84 15.456C5.92533 15.3813 5.96799 15.2853 5.96799 15.168V13.792C5.56265 13.888 5.18933 13.9147 4.84799 13.872C4.55999 13.84 4.29866 13.76 4.064 13.632C3.88266 13.5253 3.72268 13.3973 3.58401 13.248C3.48801 13.1307 3.40799 13.008 3.34399 12.88L3.28 12.72C3.17333 12.4427 3.04533 12.2027 2.896 12C2.78933 11.8613 2.67201 11.744 2.54401 11.648L2.39999 11.552C2.09066 11.3493 2.00535 11.2053 2.14401 11.12C2.21868 11.0773 2.32 11.056 2.448 11.056C2.68266 11.0667 2.90134 11.1467 3.104 11.296C3.264 11.4027 3.40266 11.5307 3.51999 11.68L3.664 11.888C3.984 12.4213 4.40534 12.7147 4.92801 12.768C5.25868 12.8 5.60532 12.736 5.96799 12.576C6.01065 12.1493 6.17599 11.792 6.46399 11.504C5.37599 11.376 4.54934 11.072 3.98401 10.592C3.21601 9.95201 2.832 8.93334 2.832 7.53601C2.832 6.70401 3.10933 5.98401 3.664 5.37601C3.58933 5.16267 3.54668 4.93332 3.53601 4.68799C3.50401 4.22932 3.584 3.776 3.776 3.328L3.90399 3.31201C4.02133 3.31201 4.15465 3.32799 4.30399 3.35999C4.50665 3.40265 4.736 3.48267 4.992 3.60001C5.29067 3.73867 5.61599 3.92534 5.96799 4.16C6.50132 4 7.17334 3.92001 7.98401 3.92001C8.61334 3.92001 9.28001 4 9.98401 4.16C10.3253 3.92534 10.6507 3.73867 10.96 3.60001C11.216 3.48267 11.4453 3.40265 11.648 3.35999C11.7973 3.32799 11.9307 3.31201 12.048 3.31201L12.192 3.328C12.4587 3.98934 12.496 4.67201 12.304 5.37601L12.288 5.42401C12.5547 5.72268 12.7573 6.05867 12.896 6.43201C13.0453 6.80534 13.12 7.18932 13.12 7.58398C13.12 8.54398 12.9333 9.32268 12.56 9.92001C12.2507 10.432 11.8027 10.8213 11.216 11.088C10.7573 11.28 10.1813 11.4187 9.48801 11.504C9.64801 11.632 9.77601 11.8133 9.87201 12.048C9.97868 12.3147 10.032 12.6187 10.032 12.96V15.168C10.032 15.2853 10.0747 15.3867 10.16 15.472C10.256 15.5573 10.3947 15.584 10.576 15.552C11.6427 15.2 12.5867 14.6453 13.408 13.888C14.2293 13.12 14.864 12.2293 15.312 11.216C15.7707 10.192 16 9.11468 16 7.98401C15.9787 6.53334 15.6053 5.18933 14.88 3.952C14.1653 2.74666 13.2053 1.79201 12 1.08801C10.7627 0.36268 9.42401 0 7.98401 0Z" fill="#1C1F23"/>
</svg>
