<svg width="18" height="18" viewBox="0 0 18 18" fill="none" xmlns="http://www.w3.org/2000/svg">
<path d="M14.625 2.25H3.375C2.75363 2.25 2.25 2.75363 2.25 3.375V15.75L5.4585 13.125H14.625C15.246 13.125 15.75 12.621 15.75 12V3.375C15.75 2.75363 15.246 2.25 14.625 2.25Z" fill="#CFD8DC"/>
<path d="M4.5 3.375H13.5C14.121 3.375 14.625 3.87863 14.625 4.5V15.75L10.125 12H4.5C3.87863 12 3.375 11.496 3.375 10.875V4.5C3.375 3.87863 3.87863 3.375 4.5 3.375Z" fill="#42A5F5"/>
<path d="M11.625 7.125C11.625 7.539 11.289 7.875 10.875 7.875C10.461 7.875 10.125 7.539 10.125 7.125C10.125 6.711 10.461 6.375 10.875 6.375C11.289 6.375 11.625 6.711 11.625 7.125Z" fill="#BBDEFB"/>
<path d="M12.375 9.25012C12.375 9.25012 11.9599 8.25 10.875 8.25C9.79013 8.25 9.375 9.25012 9.375 9.25012V9.75H12.375V9.25012Z" fill="#BBDEFB"/>
<path d="M9 6.375C9 6.996 8.49637 7.5 7.875 7.5C7.25363 7.5 6.75 6.996 6.75 6.375C6.75 5.754 7.25363 5.25 7.875 5.25C8.49637 5.25 9 5.754 9 6.375Z" fill="#E3F2FD"/>
<path d="M10.125 9.12525C10.125 9.12525 9.5025 7.875 7.875 7.875C6.2475 7.875 5.625 9.12525 5.625 9.12525V9.75H10.125V9.12525Z" fill="#E3F2FD"/>
</svg>
