<svg width="16" height="16" viewBox="0 0 16 16" fill="none" xmlns="http://www.w3.org/2000/svg">
<path d="M9.492 10.232C9.54867 10.288 9.54867 10.3793 9.492 10.436C9.182 10.744 8.696 10.894 8.00467 10.894L7.99933 10.8927L7.994 10.894C7.30333 10.894 6.81667 10.744 6.50667 10.4353C6.45 10.3793 6.45 10.288 6.50667 10.232C6.56267 10.176 6.65467 10.176 6.71133 10.232C6.964 10.4833 7.38333 10.606 7.994 10.606L7.99933 10.6073L8.00467 10.606C8.61467 10.606 9.034 10.4833 9.28733 10.232C9.344 10.176 9.436 10.176 9.492 10.232ZM7.19867 8.62C7.19867 8.282 6.92267 8.00733 6.584 8.00733C6.24467 8.00733 5.96867 8.282 5.96867 8.62C5.96867 8.95733 6.24467 9.232 6.584 9.232C6.92267 9.23267 7.19867 8.958 7.19867 8.62ZM16 8C16 12.418 12.418 16 8 16C3.582 16 0 12.418 0 8C0 3.582 3.582 0 8 0C12.418 0 16 3.582 16 8ZM12.6667 7.914C12.6667 7.34667 12.2033 6.88533 11.6333 6.88533C11.3553 6.88533 11.1033 6.99667 10.9173 7.17533C10.2133 6.712 9.26067 6.41733 8.20667 6.37933L8.78333 4.56333L10.3453 4.92933L10.3433 4.952C10.3433 5.416 10.7227 5.79333 11.1887 5.79333C11.6547 5.79333 12.0333 5.416 12.0333 4.952C12.0333 4.488 11.6547 4.11067 11.1887 4.11067C10.8307 4.11067 10.526 4.334 10.4027 4.64667L8.71933 4.252C8.646 4.234 8.57067 4.27667 8.548 4.34867L7.90467 6.374C6.80067 6.38733 5.80133 6.68467 5.066 7.16133C4.88133 6.99133 4.63667 6.88467 4.366 6.88467C3.79667 6.88533 3.33333 7.34667 3.33333 7.914C3.33333 8.29133 3.54067 8.618 3.84533 8.79733C3.82533 8.90667 3.812 9.018 3.812 9.13067C3.812 10.6513 5.682 11.8887 7.98067 11.8887C10.2793 11.8887 12.1493 10.6513 12.1493 9.13067C12.1493 9.024 12.138 8.91933 12.12 8.816C12.444 8.642 12.6667 8.30533 12.6667 7.914ZM9.41867 8.008C9.07933 8.008 8.804 8.28267 8.804 8.62067C8.804 8.958 9.08 9.23267 9.41867 9.23267C9.75733 9.23267 10.0333 8.958 10.0333 8.62067C10.0333 8.28267 9.758 8.008 9.41867 8.008Z" fill="#EB5428"/>
</svg>
