<svg width="11" height="11" viewBox="0 0 11 11" fill="none" xmlns="http://www.w3.org/2000/svg">
<path d="M2.29333 6.89784C2.29333 7.52895 1.77778 8.04451 1.14667 8.04451C0.515556 8.04451 0 7.52895 0 6.89784C0 6.26673 0.515556 5.75117 1.14667 5.75117H2.29333V6.89784Z" fill="#E01E5A"/>
<path d="M2.87109 6.89784C2.87109 6.26673 3.38665 5.75117 4.01776 5.75117C4.64887 5.75117 5.16442 6.26673 5.16442 6.89784V9.76895C5.16442 10.4001 4.64887 10.9156 4.01776 10.9156C3.38665 10.9156 2.87109 10.4001 2.87109 9.76895V6.89784Z" fill="#E01E5A"/>
<path d="M4.01776 2.29333C3.38665 2.29333 2.87109 1.77777 2.87109 1.14666C2.87109 0.515554 3.38665 0 4.01776 0C4.64887 0 5.16442 0.515554 5.16442 1.14666V2.29333H4.01776Z" fill="#36C5F0"/>
<path d="M4.01778 2.87108C4.64889 2.87108 5.16445 3.38663 5.16445 4.01774C5.16445 4.64885 4.64889 5.1644 4.01778 5.1644H1.14667C0.515556 5.1644 0 4.64885 0 4.01774C0 3.38663 0.515556 2.87108 1.14667 2.87108H4.01778Z" fill="#36C5F0"/>
<path d="M8.62207 4.01774C8.62207 3.38663 9.13762 2.87108 9.76873 2.87108C10.3998 2.87108 10.9154 3.38663 10.9154 4.01774C10.9154 4.64885 10.3998 5.1644 9.76873 5.1644H8.62207V4.01774Z" fill="#2EB67D"/>
<path d="M8.04431 4.01778C8.04431 4.64889 7.52875 5.16445 6.89764 5.16445C6.26653 5.16445 5.75098 4.64889 5.75098 4.01778V1.14667C5.75098 0.515556 6.26653 0 6.89764 0C7.52875 0 8.04431 0.515556 8.04431 1.14667V4.01778Z" fill="#2EB67D"/>
<path d="M6.89764 8.62225C7.52875 8.62225 8.04431 9.13781 8.04431 9.76892C8.04431 10.4 7.52875 10.9156 6.89764 10.9156C6.26653 10.9156 5.75098 10.4 5.75098 9.76892V8.62225H6.89764Z" fill="#ECB22E"/>
<path d="M6.89764 8.04451C6.26653 8.04451 5.75098 7.52895 5.75098 6.89784C5.75098 6.26673 6.26653 5.75117 6.89764 5.75117H9.76875C10.3999 5.75117 10.9154 6.26673 10.9154 6.89784C10.9154 7.52895 10.3999 8.04451 9.76875 8.04451H6.89764Z" fill="#ECB22E"/>
</svg>
