<svg width="15" height="12" viewBox="0 0 15 12" fill="none" xmlns="http://www.w3.org/2000/svg">
<path d="M14.016 1.34399C13.8133 1.63199 13.5893 1.90397 13.344 2.15997C13.1093 2.40531 12.8533 2.6293 12.576 2.83197C12.5867 2.95997 12.592 3.088 12.592 3.216C12.592 3.792 12.528 4.36264 12.4 4.92798C12.2827 5.48265 12.1067 6.02134 11.872 6.54401C11.5413 7.28001 11.12 7.95732 10.608 8.57599C10.1067 9.17332 9.53066 9.68533 8.87999 10.112C8.22932 10.528 7.53066 10.8426 6.784 11.056C6.00533 11.28 5.216 11.3866 4.416 11.376C3.63733 11.376 2.86933 11.2693 2.112 11.056C1.36533 10.8426 0.661333 10.5227 0 10.096C0.768 10.1813 1.52 10.1227 2.256 9.91998C2.992 9.70665 3.65866 9.36533 4.256 8.896C3.808 8.896 3.38133 8.78932 2.976 8.57599C2.58133 8.36266 2.25066 8.07464 1.98399 7.71198C1.81333 7.46664 1.68 7.19999 1.584 6.91199L1.856 6.94397C2.19734 6.97597 2.53333 6.94402 2.864 6.84802C2.544 6.78402 2.24 6.66664 1.952 6.49597C1.67466 6.3253 1.42934 6.11202 1.216 5.85602C1.00267 5.60002 0.837335 5.31733 0.720001 5.008C0.613334 4.688 0.559998 4.36265 0.559998 4.03198V4C0.965331 4.23467 1.40266 4.35731 1.87199 4.36798C1.47733 4.10131 1.168 3.75467 0.944 3.328C0.826667 3.12534 0.741322 2.90666 0.687988 2.672C0.559988 2.192 0.559988 1.71199 0.687988 1.23199C0.751988 0.986661 0.853323 0.752015 0.991989 0.528015C1.35466 0.986682 1.75999 1.39202 2.20799 1.74402C3.10399 2.45868 4.10667 2.96531 5.216 3.26398C5.77067 3.41331 6.336 3.50401 6.912 3.53601C6.88 3.42934 6.85866 3.32267 6.84799 3.216C6.83733 3.09867 6.832 2.98667 6.832 2.88C6.832 2.47467 6.90667 2.10134 7.056 1.76001C7.20533 1.41868 7.408 1.11469 7.664 0.848022C7.93067 0.581355 8.24 0.373332 8.592 0.223999C8.944 0.0746657 9.31732 0 9.71199 0C10.1067 0 10.4853 0.0799904 10.848 0.23999C11.2107 0.399991 11.5253 0.623987 11.792 0.911987C12.4427 0.783987 13.0507 0.549341 13.616 0.208008C13.5093 0.549341 13.3493 0.858653 13.136 1.13599C12.9227 1.40265 12.6613 1.62665 12.352 1.80798C12.928 1.73332 13.4773 1.58398 14 1.35999L14.016 1.34399Z" fill="#6FA8D8"/>
</svg>
