<svg xmlns="http://www.w3.org/2000/svg" enable-background="new 0 0 24 24" height="24px" viewBox="0 0 24 24" width="24px" fill="#455A64"><g><rect fill="none" height="24" width="24" y="0"/></g><g><g><path d="M21.26,18L13.73,4.99c-0.77-1.33-2.69-1.33-3.46,0L2.74,18c-0.77,1.33,0.19,3,1.73,3h15.06C21.07,21,22.03,19.33,21.26,18 z M4.47,19L12,5.99L19.53,19H4.47z"/><path d="M11,11v2c0,0.55,0.45,1,1,1c0.55,0,1-0.45,1-1v-2c0-0.55-0.45-1-1-1C11.45,10,11,10.45,11,11z"/><circle cx="12" cy="17" r="1"/></g></g></svg>