<?xml version="1.0" encoding="UTF-8"?>
<svg id="a" xmlns="http://www.w3.org/2000/svg" viewBox="0 0 465.22 152.99">
  <defs>
    <style>
      .logo-name { fill:#fff; }
      .logo-mark path,
      .logo-mark rect { fill:#fff; }
    </style>
  </defs>
  <g id="torq-name" class="logo-name">
    <path id="t" d="M24.14,42.61h27.66V21.38H24.14V0H0L.02,94.12c0,15.43,9.59,25.41,24.44,25.41h27.64v-22.1H24.14V42.61Z"/>
    <path id="o" d="M135.07,25.81c-7.91-4.39-16.88-6.62-26.64-6.62s-18.73,2.23-26.64,6.62c-7.93,4.4-14.24,10.58-18.76,18.37-4.52,7.77-6.81,16.61-6.81,26.28s2.29,18.43,6.81,26.19c4.52,7.78,10.83,13.97,18.76,18.41,7.92,4.43,16.88,6.67,26.65,6.67s18.73-2.24,26.64-6.67c7.93-4.43,14.24-10.63,18.76-18.41,4.52-7.77,6.81-16.59,6.81-26.2s-2.29-18.43-6.81-26.24c-4.52-7.81-10.83-14.01-18.76-18.41Zm.99,44.65c0,8.26-2.62,15.13-7.78,20.4-5.16,5.26-11.83,7.93-19.84,7.93s-14.69-2.67-19.85-7.93c-5.17-5.27-7.79-12.13-7.79-20.4s2.62-15.13,7.79-20.4c5.15-5.26,11.83-7.93,19.85-7.93s14.69,2.67,19.84,7.93c5.16,5.27,7.78,12.13,7.78,20.4Z"/>
    <path id="r" d="M172.04,43.16V119.65h24.13V42.94h28.09V20.97h-29.45c-14.66,0-22.77,13.12-22.77,22.19Z"/>
    <path id="q" d="M309.47,21.35v8.11c-8.16-6.39-18.5-10.22-30.2-10.35-6.9,.06-13.47,1.36-19.53,3.86-6.22,2.57-12.08,6.46-16.51,10.95-4.3,4.36-7.81,9.86-10.42,16.34-2.68,6.65-4.04,13.48-4.04,20.31s1.42,14.08,4.1,20.7c2.38,5.88,5.86,11.13,10.64,16.03,4.3,4.41,9.93,8.14,16.28,10.78,5.98,2.49,12.6,3.69,20.23,3.69,10.78,0,19.22-2.56,27.96-8.54l.11,39.75h24.29V21.35h-22.92Zm-8.27,69.22c-5.73,5.76-11.65,8.22-19.79,8.22-8.56,0-15.05-2.54-20.42-7.99-5.6-5.68-8.1-11.92-8.1-20.23s2.76-14.87,8.43-20.63c5.33-5.41,11.54-7.82,20.16-7.82,7.86,0,14.12,2.6,19.7,8.18,5.57,5.57,8.06,11.79,8.06,20.16s-2.48,14.52-8.05,20.11Z"/>
  </g>
  <g id="torq-mark" class="logo-mark">
    <path d="M465.22,29.35c0-4.78-5.29-9.17-10.7-9.17h-47.74v22.48h58.4l.04-13.31Z"/>
    <rect x="359.34" y="58.92" width="105.85" height="22.5"/>
    <path d="M359.41,97.69v12.97c0,4.91,5.3,9.51,10.74,9.51h48.7v-22.49h-59.44Z"/>
  </g>
</svg>